<svg xmlns="http://www.w3.org/2000/svg" xmlns:xlink="http://www.w3.org/1999/xlink" version="1.1" x="0px" y="0px" viewBox="0 0 100 125" enable-background="new 0 0 100 100" xml:space="preserve"><path fill="#000000" d="M90.268,44.613L44.614,90.266c-3.103,3.101-7.184,4.625-11.209,4.625c-4.028,0-8.109-1.524-11.209-4.625  L9.735,77.805c-3.047-3.101-4.626-7.128-4.626-11.209c0-4.027,1.578-8.108,4.626-11.155L55.441,9.734  c3.047-3.047,7.128-4.625,11.156-4.625c4.081,0,8.106,1.578,11.209,4.625l12.461,12.461c3.101,3.101,4.623,7.182,4.623,11.209  S93.369,41.511,90.268,44.613z M71.059,33.676c1.578-1.578,4.19-1.578,5.768,0l6.422,6.42l1.251-1.251  c1.522-1.523,2.229-3.483,2.229-5.441c0-1.959-0.707-3.918-2.229-5.441l-12.461-12.46c-1.525-1.469-3.427-2.231-5.441-2.231  c-1.961,0-3.863,0.762-5.388,2.231L15.503,61.209c-1.469,1.469-2.232,3.428-2.232,5.388c0,2.013,0.763,3.918,2.232,5.441  l12.461,12.46c1.522,1.524,3.483,2.231,5.441,2.231s3.919-0.707,5.441-2.231l1.251-1.251L27.475,70.623  c-1.634-1.633-1.634-4.19,0-5.823c1.578-1.578,4.19-1.578,5.768,0l12.623,12.679l6.693-6.693l-6.422-6.42  c-1.578-1.578-1.578-4.135,0-5.768c1.634-1.578,4.19-1.578,5.768,0l6.422,6.421l6.693-6.693L52.394,45.701  c-1.631-1.632-1.631-4.19,0-5.767c1.578-1.633,4.137-1.633,5.768,0l12.626,12.624l6.693-6.693l-6.422-6.421  C69.48,37.866,69.48,35.309,71.059,33.676z"/><text x="0" y="115" fill="#000000" font-size="5px" font-weight="bold" font-family="'Helvetica Neue', Helvetica, Arial-Unicode, Arial, Sans-serif">Created by Pumpkin Juice</text><text x="0" y="120" fill="#000000" font-size="5px" font-weight="bold" font-family="'Helvetica Neue', Helvetica, Arial-Unicode, Arial, Sans-serif">from the Noun Project</text></svg>