<svg xmlns="http://www.w3.org/2000/svg" xmlns:xlink="http://www.w3.org/1999/xlink" version="1.1" x="0px" y="0px" viewBox="0 0 54.5 85" enable-background="new 0 0 54.5 68" xml:space="preserve"><g><path d="M45.3,47.3V20.8c0-6.1-5-11.1-11.1-11.1h-2.7V3.6L20.7,13l10.8,9.3v-6.1h2.7c2.6,0,4.6,2.1,4.6,4.6v26.4   c-2.7,1.2-4.7,4-4.7,7.2c0,4.4,3.6,7.9,7.9,7.9c4.4,0,7.9-3.6,7.9-7.9C50,51.3,48.1,48.5,45.3,47.3z M42.1,58.4   c-2.2,0-3.9-1.8-3.9-3.9c0-2.2,1.8-3.9,3.9-3.9c2.2,0,3.9,1.8,3.9,3.9C46,56.6,44.2,58.4,42.1,58.4z"/></g><g><path d="M7.7,20.7v26.4c0,6.1,5,11.1,11.1,11.1h2.7v6.1L32.3,55l-10.8-9.3v6.1h-2.7c-2.6,0-4.6-2.1-4.6-4.6V20.7   c2.7-1.2,4.7-4,4.7-7.2c0-4.4-3.6-7.9-7.9-7.9C6.6,5.6,3,9.2,3,13.5C3,16.7,4.9,19.5,7.7,20.7z M10.9,9.6c2.2,0,3.9,1.8,3.9,3.9   c0,2.2-1.8,3.9-3.9,3.9c-2.2,0-3.9-1.8-3.9-3.9C7,11.4,8.8,9.6,10.9,9.6z"/></g><text x="0" y="83" fill="#000000" font-size="5px" font-weight="bold" font-family="'Helvetica Neue', Helvetica, Arial-Unicode, Arial, Sans-serif">Created by Nick Bluth</text><text x="0" y="88" fill="#000000" font-size="5px" font-weight="bold" font-family="'Helvetica Neue', Helvetica, Arial-Unicode, Arial, Sans-serif">from the Noun Project</text></svg>