<svg xmlns="http://www.w3.org/2000/svg" xmlns:xlink="http://www.w3.org/1999/xlink" version="1.1" x="0px" y="0px" viewBox="0 0 100 125" style="enable-background:new 0 0 100 100;" xml:space="preserve"><g><path d="M13.136,82.432H0v-9.015h13.136V82.432z M34.852,73.417H21.716v9.015h13.136V73.417z M56.567,73.417H43.433v9.015h13.135   V73.417z M78.284,73.417H65.148v9.015h13.136V73.417z M100,73.417H86.864v9.015H100V73.417z M10.706,66.176   c-4.975-4.973-4.975-13.037,0-18.01c4.974-4.976,13.037-4.976,18.013,0c1.027,1.027,1.842,2.188,2.445,3.424H41.84v-9.459   c-1.554-0.622-3.01-1.562-4.269-2.819c-4.974-4.974-4.974-13.038,0-18.013c4.974-4.973,13.038-4.973,18.012,0   c4.975,4.975,4.975,13.039,0,18.013c-0.633,0.633-1.316,1.185-2.036,1.656V51.59h19.521c0,0,19.615-0.76,19.615,11.707H53.547   v6.479H41.84v-6.479H30.882c-0.567,1.033-1.288,2.004-2.163,2.879C23.743,71.151,15.68,71.151,10.706,66.176z M42.258,34.625   c2.383,2.382,6.257,2.382,8.639,0c2.382-2.383,2.382-6.258,0-8.639c-2.382-2.382-6.256-2.382-8.639,0   C39.876,28.367,39.876,32.242,42.258,34.625z M43.571,61.524c2.266,2.265,5.938,2.265,8.203,0c2.266-2.265,2.266-5.938,0-8.204   c-2.265-2.264-5.938-2.264-8.203,0.001C41.305,55.586,41.305,59.26,43.571,61.524z M15.393,61.49c2.382,2.381,6.257,2.381,8.638,0   c2.382-2.381,2.382-6.257,0-8.639c-2.381-2.381-6.256-2.381-8.638,0C13.011,55.233,13.011,59.109,15.393,61.49z"/></g><text x="0" y="115" fill="#000000" font-size="5px" font-weight="bold" font-family="'Helvetica Neue', Helvetica, Arial-Unicode, Arial, Sans-serif">Created by b farias</text><text x="0" y="120" fill="#000000" font-size="5px" font-weight="bold" font-family="'Helvetica Neue', Helvetica, Arial-Unicode, Arial, Sans-serif">from the Noun Project</text></svg>