<svg xmlns="http://www.w3.org/2000/svg" xmlns:xlink="http://www.w3.org/1999/xlink" version="1.1" x="0px" y="0px" viewBox="0 0 30 37.5" xml:space="preserve"><g transform="translate(-450 -260)"><g xmlns="http://www.w3.org/2000/svg" xmlns:xlink="http://www.w3.org/1999/xlink"><rect x="450" y="263" width="6" height="6"/><rect x="458" y="263" width="6" height="6"/><rect x="474" y="263" width="6" height="6"/><rect x="466" y="263" width="6" height="6"/><polygon points="465,271 462,274 464,274 464,279 466,279 466,274 468,274   "/><polygon points="466,281 466,283 467,283 467,282 468,282 468,281   "/><polygon points="467,285 466,285 466,287 468,287 468,286 467,286   "/><polygon points="471,286 470,286 470,287 472,287 472,285 471,285   "/><polygon points="470,281 470,282 471,282 471,283 472,283 472,281   "/><polygon points="474,281 474,283 475,283 475,282 476,282 476,281   "/><polygon points="475,285 474,285 474,287 476,287 476,286 475,286   "/><polygon points="479,286 478,286 478,287 480,287 480,285 479,285   "/><polygon points="478,281 478,282 479,282 479,283 480,283 480,281   "/></g></g><text x="0" y="45" fill="#000000" font-size="5px" font-weight="bold" font-family="'Helvetica Neue', Helvetica, Arial-Unicode, Arial, Sans-serif">Created by Hea Poh Lin</text><text x="0" y="50" fill="#000000" font-size="5px" font-weight="bold" font-family="'Helvetica Neue', Helvetica, Arial-Unicode, Arial, Sans-serif">from the Noun Project</text></svg>