<?xml version="1.0" encoding="UTF-8" standalone="no"?>
<svg
   xmlns:dc="http://purl.org/dc/elements/1.1/"
   xmlns:cc="http://creativecommons.org/ns#"
   xmlns:rdf="http://www.w3.org/1999/02/22-rdf-syntax-ns#"
   xmlns:svg="http://www.w3.org/2000/svg"
   xmlns="http://www.w3.org/2000/svg"
   xmlns:sodipodi="http://sodipodi.sourceforge.net/DTD/sodipodi-0.dtd"
   xmlns:inkscape="http://www.inkscape.org/namespaces/inkscape"
   version="1.1"
   x="0px"
   y="0px"
   viewBox="0 0 59.3 65"
   enable-background="new 0 0 59.3 52"
   xml:space="preserve"
   id="svg2"
   inkscape:version="0.48.4 r9939"
   width="100%"
   height="100%"
   sodipodi:docname="noun_368565_cc.svg"><metadata
     id="metadata14"><rdf:RDF><cc:Work
         rdf:about=""><dc:format>image/svg+xml</dc:format><dc:type
           rdf:resource="http://purl.org/dc/dcmitype/StillImage" /><dc:title></dc:title></cc:Work></rdf:RDF></metadata><defs
     id="defs12" /><sodipodi:namedview
     pagecolor="#ffffff"
     bordercolor="#666666"
     borderopacity="1"
     objecttolerance="10"
     gridtolerance="10"
     guidetolerance="10"
     inkscape:pageopacity="0"
     inkscape:pageshadow="2"
     inkscape:window-width="1280"
     inkscape:window-height="957"
     id="namedview10"
     showgrid="false"
     inkscape:zoom="3.6307692"
     inkscape:cx="29.65"
     inkscape:cy="32.5"
     inkscape:window-x="-8"
     inkscape:window-y="-8"
     inkscape:window-maximized="1"
     inkscape:current-layer="svg2" /><path
     d="M45.5,23.4H37c-1.2-2.7-4-4.7-7.2-4.7s-6,1.9-7.2,4.7h-8.8v6.5h8.8c1.2,2.7,4,4.7,7.2,4.7s6-1.9,7.2-4.7h8.5V23.4z   M29.8,30.6c-2.2,0-3.9-1.8-3.9-3.9c0-2.2,1.8-3.9,3.9-3.9c2.2,0,3.9,1.8,3.9,3.9C33.7,28.8,32,30.6,29.8,30.6z"
     id="path4"
     style="fill:#c83737"
     inkscape:export-filename="C:\ARPA-2017\fatti_miei\AndreaMGOS-lavori\Progetto_ENEL-RETURN\cavo_route_C83737.png"
     inkscape:export-xdpi="90"
     inkscape:export-ydpi="90" /><text
     x="0"
     y="67"
     fill="#000000"
     font-size="5px"
     font-weight="bold"
     font-family="'Helvetica Neue', Helvetica, Arial-Unicode, Arial, Sans-serif"
     id="text6">Created by Nick Bluth</text>
<text
     x="0"
     y="72"
     fill="#000000"
     font-size="5px"
     font-weight="bold"
     font-family="'Helvetica Neue', Helvetica, Arial-Unicode, Arial, Sans-serif"
     id="text8">from the Noun Project</text>
</svg>