<?xml version="1.0" encoding="UTF-8" standalone="no"?>
<svg
   xmlns:dc="http://purl.org/dc/elements/1.1/"
   xmlns:cc="http://creativecommons.org/ns#"
   xmlns:rdf="http://www.w3.org/1999/02/22-rdf-syntax-ns#"
   xmlns:svg="http://www.w3.org/2000/svg"
   xmlns="http://www.w3.org/2000/svg"
   xmlns:sodipodi="http://sodipodi.sourceforge.net/DTD/sodipodi-0.dtd"
   xmlns:inkscape="http://www.inkscape.org/namespaces/inkscape"
   version="1.1"
   x="0px"
   y="0px"
   viewBox="0 0 100 125"
   enable-background="new 0 0 100 100"
   xml:space="preserve"
   id="svg2"
   inkscape:version="0.48.4 r9939"
   width="100%"
   height="100%"
   sodipodi:docname="download_hspencer.svg"><metadata
     id="metadata20"><rdf:RDF><cc:Work
         rdf:about=""><dc:format>image/svg+xml</dc:format><dc:type
           rdf:resource="http://purl.org/dc/dcmitype/StillImage" /><dc:title /></cc:Work></rdf:RDF></metadata><defs
     id="defs18" /><sodipodi:namedview
     pagecolor="#ffffff"
     bordercolor="#666666"
     borderopacity="1"
     objecttolerance="10"
     gridtolerance="10"
     guidetolerance="10"
     inkscape:pageopacity="0"
     inkscape:pageshadow="2"
     inkscape:window-width="1280"
     inkscape:window-height="957"
     id="namedview16"
     showgrid="false"
     inkscape:zoom="5.3400704"
     inkscape:cx="35.759374"
     inkscape:cy="65.417702"
     inkscape:window-x="-8"
     inkscape:window-y="-8"
     inkscape:window-maximized="1"
     inkscape:current-layer="svg2" /><g
     id="g4"
     style="fill:#c83737"
     inkscape:export-filename="C:\Users\riccardo\Downloads\download.png"
     inkscape:export-xdpi="90"
     inkscape:export-ydpi="90"><g
       id="g6"
       style="fill:#c83737"><path
         d="M76,64c0,0.003,0,1.013,0,2.644c0,1.632,0,3.881,0,6.356c-0.002,0.478-0.103,0.916-0.311,1.36    c-0.31,0.661-0.892,1.33-1.71,1.827C73.163,76.686,72.14,77,71,77H31c-1.517,0.003-2.838-0.565-3.718-1.36    c-0.439-0.396-0.764-0.838-0.972-1.279C26.103,73.916,26.002,73.478,26,73c0-2.476,0-4.726,0-6.356s0-2.641,0-2.644H16    c0,0.003,0,1.013,0,2.644c0,1.632,0,3.881,0,6.356c-0.002,1.997,0.46,3.922,1.268,5.629c1.214,2.566,3.175,4.65,5.55,6.099    C25.194,86.176,28.015,87,31,87h40c3.983-0.003,7.662-1.46,10.407-3.927c1.373-1.236,2.518-2.734,3.325-4.444    C85.54,76.922,86.002,74.997,86,73c0-2.476,0-4.726,0-6.356s0-2.641,0-2.644H76z"
         id="path8"
         style="fill:#c83737" /><path
         d="M45.234,27.766c1.1,1.106,1.765,2.587,1.766,4.234v23.343l-7.171-7.17l-5.656,5.656l16.828,16.829l16.828-16.829    l-5.656-5.656L55,55.345V32c0.001-3.853-1.584-7.372-4.109-9.891C48.372,19.584,44.853,17.999,41,18H29v8h12    C42.647,26.001,44.128,26.666,45.234,27.766z"
         id="path10"
         style="fill:#c83737" /></g></g><path
     style="fill:#009540;fill-opacity:1;fill-rule:nonzero;stroke:#000000;stroke-width:0.46815863000000002;stroke-linecap:round;stroke-linejoin:miter;stroke-miterlimit:4;stroke-opacity:1;stroke-dasharray:none"
     d="M 30.235102,86.880511 C 24.267775,86.378016 19.742142,83.417386 17.389728,78.47718 16.273015,76.132017 16.096712,74.856425 16.096712,69.121902 l 0,-4.970376 4.86885,0 4.868849,0 0,4.297842 c 0,2.448406 0.08966,4.715922 0.208363,5.269404 0.272687,1.271498 1.361347,2.394566 2.867439,2.958067 l 1.074648,0.402077 21.299217,-0.04992 21.299217,-0.04992 1.103,-0.564138 c 0.736916,-0.376903 1.291864,-0.832708 1.672044,-1.373332 l 0.569045,-0.809192 0.05541,-5.040442 0.05541,-5.040442 4.953884,0 4.953884,0 0,4.692531 c 0,2.580893 -0.09276,5.298553 -0.206139,6.039247 -0.851377,5.562057 -5.103669,10.011104 -11.080998,11.593724 -1.535375,0.406521 -1.609238,0.407949 -22.607547,0.437206 -11.586926,0.01614 -21.404212,9.36e-4 -21.816192,-0.03372 z"
     id="path2985"
     inkscape:connector-curvature="0" /><path
     style="fill:#abcf83;fill-opacity:1;fill-rule:nonzero;stroke:#000000;stroke-width:0.46815863000000002;stroke-linecap:round;stroke-linejoin:miter;stroke-miterlimit:4;stroke-opacity:1;stroke-dasharray:none"
     d="m 42.72584,62.185526 -8.331907,-8.333486 2.760817,-2.760815 2.760817,-2.760818 3.558533,3.554837 3.558534,3.554835 0,-12.303699 c 0,-11.995646 -0.0097,-12.329715 -0.388791,-13.342834 -0.473481,-1.265492 -1.765967,-2.648439 -3.075583,-3.290842 -0.934547,-0.458421 -0.949156,-0.459391 -7.724617,-0.512774 l -6.7883,-0.05348 0,-3.937895 0,-3.937893 7.162826,0.0732 c 7.907887,0.08082 8.107741,0.106192 10.741302,1.36376 3.437216,1.641326 6.136815,4.778894 7.404435,8.60569 l 0.434213,1.310844 0.05816,12.967994 c 0.03199,7.132397 0.116783,12.967994 0.188436,12.967994 0.07165,0 1.711363,-1.579442 3.643798,-3.509868 l 3.513519,-3.509869 2.76108,2.761082 2.761081,2.761079 -8.333221,8.333222 -8.333222,8.333221 -8.331907,-8.333485 0,0 z"
     id="path3755"
     inkscape:connector-curvature="0" /></svg>