<?xml version="1.0" encoding="UTF-8" standalone="no"?>
<svg
   xmlns:dc="http://purl.org/dc/elements/1.1/"
   xmlns:cc="http://creativecommons.org/ns#"
   xmlns:rdf="http://www.w3.org/1999/02/22-rdf-syntax-ns#"
   xmlns:svg="http://www.w3.org/2000/svg"
   xmlns="http://www.w3.org/2000/svg"
   xmlns:sodipodi="http://sodipodi.sourceforge.net/DTD/sodipodi-0.dtd"
   xmlns:inkscape="http://www.inkscape.org/namespaces/inkscape"
   version="1.1"
   x="0px"
   y="0px"
   viewBox="0 0 100 125"
   enable-background="new 0 0 100 100"
   xml:space="preserve"
   id="svg2"
   inkscape:version="0.48.4 r9939"
   width="100%"
   height="100%"
   sodipodi:docname="export_hspencer.svg"><metadata
   id="metadata20"><rdf:RDF><cc:Work
       rdf:about=""><dc:format>image/svg+xml</dc:format><dc:type
         rdf:resource="http://purl.org/dc/dcmitype/StillImage" /><dc:title></dc:title></cc:Work></rdf:RDF></metadata><defs
   id="defs18" /><sodipodi:namedview
   pagecolor="#ffffff"
   bordercolor="#666666"
   borderopacity="1"
   objecttolerance="10"
   gridtolerance="10"
   guidetolerance="10"
   inkscape:pageopacity="0"
   inkscape:pageshadow="2"
   inkscape:window-width="1280"
   inkscape:window-height="957"
   id="namedview16"
   showgrid="false"
   inkscape:zoom="2.6700352"
   inkscape:cx="-0.3524499"
   inkscape:cy="60.017854"
   inkscape:window-x="-8"
   inkscape:window-y="-8"
   inkscape:window-maximized="1"
   inkscape:current-layer="svg2" /><path
   d="m 76,66.644 c 0,1.632 0,3.881 0,6.356 -0.002,0.478 -0.103,0.916 -0.311,1.36 -0.31,0.661 -0.892,1.33 -1.71,1.827 C 73.163,76.686 72.14,77 71,77 H 31 C 29.483,77.003 28.162,76.435 27.282,75.64 26.843,75.244 26.518,74.802 26.31,74.361 26.103,73.916 26.002,73.478 26,73 c 0,-2.476 0,-4.726 0,-6.356 0,-1.63 0,-2.641 0,-2.644 H 16 c 0,0.003 0,1.013 0,2.644 0,1.632 0,3.881 0,6.356 -0.002,1.997 0.46,3.922 1.268,5.629 1.214,2.566 3.175,4.65 5.55,6.099 C 25.194,86.176 28.015,87 31,87 h 40 c 3.983,-0.003 7.662,-1.46 10.407,-3.927 1.373,-1.236 2.518,-2.734 3.325,-4.444 C 85.54,76.922 86.002,74.997 86,73 c 0,-2.476 0,-4.726 0,-6.356 0,-1.63 0,-2.641 0,-2.644 H 76 c 0,0.003 0,1.013 0,2.644 z"
   id="path8"
   style="fill:#009540;fill-opacity:1;stroke:#000000;stroke-opacity:1;stroke-width:0.5;stroke-miterlimit:4;stroke-dasharray:none"
   inkscape:connector-curvature="0"
   inkscape:export-filename="C:\Users\riccardo\git\plugin_PNI\progettoPNI\export.png"
   inkscape:export-xdpi="90"
   inkscape:export-ydpi="90" /><path
   d="m 42,72 h 18 c 2.209,0 4,-1.791 4,-4 0,-2.209 -1.791,-4 -4,-4 H 55 V 40 c 10e-4,-1.647 0.666,-3.128 1.766,-4.234 C 57.872,34.666 59.353,34.001 61,34 h 10.345 l -7.172,7.173 5.656,5.656 L 86.658,30.001 69.829,13.173 64.173,18.829 71.343,26 H 61 C 57.147,25.999 53.628,27.584 51.109,30.109 48.584,32.628 46.999,36.147 47,40 v 24 h -5 c -2.209,0 -4,1.791 -4,4 0,2.209 1.791,4 4,4 z"
   id="path10"
   style="fill:#abcf83;fill-opacity:1;stroke:#000000;stroke-opacity:1;stroke-width:0.5;stroke-miterlimit:4;stroke-dasharray:none"
   inkscape:connector-curvature="0"
   inkscape:export-filename="C:\Users\riccardo\git\plugin_PNI\progettoPNI\export.png"
   inkscape:export-xdpi="90"
   inkscape:export-ydpi="90" /><text
   x="0"
   y="115"
   fill="#000000"
   font-size="5px"
   font-weight="bold"
   font-family="'Helvetica Neue', Helvetica, Arial-Unicode, Arial, Sans-serif"
   id="text12">Created by Herbert Spencer</text>

<text
   x="0"
   y="120"
   fill="#000000"
   font-size="5px"
   font-weight="bold"
   font-family="'Helvetica Neue', Helvetica, Arial-Unicode, Arial, Sans-serif"
   id="text14">from the Noun Project</text>

</svg>