<svg xmlns="http://www.w3.org/2000/svg" xmlns:xlink="http://www.w3.org/1999/xlink" version="1.0" x="0px" y="0px" viewBox="0 0 100 125" enable-background="new 0 0 100 100" xml:space="preserve"><polygon points="30.8505707,43.4020348 30.8490124,43.4036522 16.9998741,29.5545406 12.4910612,34.0633545 26.3401394,47.9125214   10.6254158,63.6271896 15.1342878,68.1360626 35.3595009,47.9109077 "/><polygon points="37.0717049,22.8686123 32.5628929,27.3774853 50.7922554,45.6068497 55.3011284,41.0979767 55.2994499,41.0964203   84.7417297,11.6541967 80.2328568,7.1452641 50.790638,36.5875473 "/><polygon points="46.2824211,27.9575729 50.7913551,32.466507 71.01651,12.241291 66.507576,7.7324181 50.7929115,23.4471436   33.8353615,6.489563 29.3265495,10.9983759 46.2840996,27.9560165 "/><polygon points="46.2900276,67.6765671 46.2917061,67.6781235 23.3710976,90.598671 27.8799706,95.107605 50.800518,72.1869965   64.519455,85.9059296 69.0282669,81.3970566 50.7989006,63.1676941 "/><polygon points="46.3130264,54.7580643 46.3146439,54.7596817 31.1880035,69.8862076 35.6968765,74.395134 50.8234596,59.2684937   75.3760681,83.8211365 79.8850021,79.3123245 50.8218994,50.2491913 "/><polygon points="57.421196,43.6166878 52.912262,48.1255608 73.1374741,68.3507156 77.646347,63.8418427 61.9316254,48.1271782   82.5883026,27.4704094 78.0794907,22.9615955 57.4227524,43.6183052 "/><polygon points="75.0538483,48.132988 82.8967514,40.2901192 78.3879395,35.7812462 66.0345459,48.1345444 70.5434799,52.6434174   70.5450363,52.6417999 85.6715622,67.7684402 90.1804962,63.2595673 "/><polygon points="44.2082939,52.4054642 48.7171669,47.8965912 34.6478615,33.8273506 30.1390495,38.3362236 39.6978607,47.8950348   15.2386808,72.354126 19.7474937,76.862999 44.2066765,52.4038467 "/><text x="0" y="115" fill="#000000" font-size="5px" font-weight="bold" font-family="'Helvetica Neue', Helvetica, Arial-Unicode, Arial, Sans-serif">Created by Alex Tai</text><text x="0" y="120" fill="#000000" font-size="5px" font-weight="bold" font-family="'Helvetica Neue', Helvetica, Arial-Unicode, Arial, Sans-serif">from the Noun Project</text></svg>