<svg xmlns="http://www.w3.org/2000/svg" xmlns:xlink="http://www.w3.org/1999/xlink" xml:space="preserve" version="1.1" style="shape-rendering:geometricPrecision;text-rendering:geometricPrecision;image-rendering:optimizeQuality;" viewBox="0 0 50000 62500" x="0px" y="0px" fill-rule="evenodd" clip-rule="evenodd"><defs><style type="text/css">
   
    .fil0 {fill:black;fill-rule:nonzero}
   
  </style></defs><g><path class="fil0" d="M33651.64 49342.88c-6.03,139.75 102.4,257.95 242.15,263.97 139.75,6.03 257.95,-102.39 263.98,-242.14 5.45,-126.91 17.31,-437.29 33.17,-852.85 26.78,-701.79 65.37,-1712.96 108.52,-2746.49 29.81,-713.96 44.21,-1280.03 55.71,-1732.74 22.84,-897.86 33.94,-1334.3 136.4,-1688.69 95.45,-330.12 284.18,-629.93 651.4,-1213.24 234.07,-371.81 538.53,-855.41 942.34,-1544.17 425.91,-726.42 885.28,-1603.4 1312.85,-2634.04 428.21,-1032.17 826.42,-2221.87 1130.51,-3574.67 84.79,-377.27 168.12,-769.41 258.57,-1195.16 482.52,-2271.08 1164.56,-5481.24 1958.12,-6475.59 284.74,-356.79 678.18,-789.09 1112.94,-1266.82 788.03,-865.86 1710.43,-1879.4 2408.87,-2909.71 297.32,-438.62 503.74,-790.26 697.62,-1120.57 326.85,-556.84 617.19,-1051.49 1249.51,-1789.34l-0.21 -0.18c1365.68,-1546.89 1715.48,-2831.3 1508.7,-3704.26 -90.28,-381.13 -284.52,-687.19 -548.28,-908 -261.68,-219.08 -590.3,-351.17 -951.89,-386.49 -795.54,-77.74 -1756.4,321.1 -2484.38,1308.23l-1621.74 1917.38 -1.98 2.98c-1001.23,1214.06 -1616.4,1778.3 -2160.95,2277.76 -454.84,417.18 -861.55,790.22 -1404.03,1454.97 -363.9,393.5 -822.96,884.43 -1328.39,1205.33 -462.08,293.38 -966.83,441.81 -1470.25,214.08 -906.19,-620.84 -153.27,-2624.04 573.7,-4557.7 638.09,-1697.34 1113.45,-3419.74 1711.94,-5135.98 610.34,-1750.2 1336.45,-3788.77 1761.02,-5570.35 273.59,-1148.02 5.71,-2052.31 -521.92,-2627.41 -254.79,-277.74 -570.19,-477.72 -915.34,-591.04 -343.21,-112.67 -715.74,-138.85 -1086.98,-69.72 -782.82,145.77 -1555.99,714.32 -2020.69,1788.36 -288.87,667.66 -534.53,1424.7 -774.14,2163.1 -164.41,506.69 -325.99,1004.61 -492.11,1446.51 -875.89,2322.13 -2455.29,6010.05 -3006.17,8561.62 -231.55,1072.49 -511.09,1744.08 -767.03,2020.76 -59.63,64.47 -101.94,95.73 -125.46,93.62 -17.14,-1.53 -44.94,-35.56 -82.56,-102.19 -168.59,-298.61 -268.12,-953.3 -236.76,-1972.3 27.64,-898.32 96.2,-1790.81 104.33,-2691.4 19.41,-2150.11 232.54,-4280.84 341.58,-6424.93 84.79,-1667.65 355.19,-3330.82 462.34,-4997.12 86.89,-1351.62 -510.07,-2235.05 -1328.44,-2657.98 -340.23,-175.83 -718.68,-270.11 -1101.83,-283.66 -382.3,-13.52 -768.76,53 -1125.93,198.71 -893.72,364.6 -1611.54,1216.63 -1639.71,2541.23 -21.38,1005.34 -60.82,1924.41 -121.31,2862.77 -60.39,937.05 -141.11,1880.78 -245.29,2939.05 -122.78,1247.37 -257.32,2683.29 -374.43,4094.29 -118.85,1432.05 -224.39,2887.06 -290.22,4184.28l0 1.98c-33.35,825.67 -184.92,1366.16 -398.56,1643.87 -81.75,106.28 -167.97,164.84 -254.14,177.37 -88.65,12.89 -190.78,-19 -300.99,-93.99 -292.78,-199.2 -598.82,-656.04 -856.69,-1354.82l-2.98 -5.95 -479.7 -1208.03c-718.85,-1809.31 -1364.66,-3434.76 -1904.74,-5496.24l0 -1.98c-73.09,-270.76 -119.22,-444.1 -165.42,-617.84 -427.23,-1605.94 -874.56,-3287.49 -1616.26,-4693.09 -342.53,-649.09 -808.18,-1076.24 -1306.38,-1299.54 -392.38,-175.87 -803.53,-225.27 -1191.61,-157.31 -389.4,68.19 -754.84,254.24 -1054.33,548.95 -367.11,361.23 -632.84,884.25 -716.35,1550.14 -55.25,440.62 12.21,1229.34 171.9,2202.11 160.25,976.36 413.67,2145.41 728.4,3335.67 253.81,959.88 425.5,1752.29 587.99,2502.32 226.45,1045.28 435.21,2008.78 832.3,3265.32l2.98 7.93c424.5,1197.37 680.5,2056.14 860.11,2794.82 179.03,736.34 284.69,1365.11 406.51,2094.06 276.03,1651.52 160.14,3915.77 -310.49,5871.15 -403.55,1676.61 -1061.57,3112.94 -1945.65,3703.96 -1735.32,1160 -3733.17,66.18 -5955.25,-1150.44 -137.32,-75.17 -275.5,-150.83 -414.48,-226.44 -2383.72,-1296.74 -4367.15,-1299.18 -5585.94,-672.74 -509.37,261.82 -889.42,633.22 -1116.06,1068.91 -229.79,441.72 -301.19,946.13 -189.8,1467.21 228.26,1067.95 1235.38,2204.38 3241.22,2973.09 1648.24,631.73 2801.8,1104.51 4388.71,1989.06 1743.01,971.55 3425.53,2046.92 5160.16,3040.27 3871.5,2217.06 4625.48,2648.84 3931.75,8771.89 -15.34,139.21 85.08,264.53 224.29,279.86 139.22,15.34 264.53,-85.08 279.86,-224.29 426.92,-3768.06 331.12,-5492.19 -641.28,-6743.78 355.68,139.52 716.53,262.16 1076.97,367.57 1076.63,314.88 2150.62,476.96 3074.55,476.96 140.31,0 254.06,-113.75 254.06,-254.06 0,-140.31 -113.75,-254.06 -254.06,-254.06 -881.51,0 -1906.26,-154.66 -2933.62,-455.13 -927.03,-271.12 -1855.52,-660.37 -2682.54,-1161.15 -570.68,-381.14 -1258.36,-775.12 -2077.91,-1244.45 -1736.32,-994.33 -3421.59,-2069.86 -5166.12,-3042.24 -1606.35,-895.4 -2784.11,-1380.74 -4454.2,-2020.83 -1823.64,-698.88 -2730.11,-1689.13 -2925.63,-2603.91 -85.95,-402.13 -31.69,-789.8 144.15,-1127.81 178.98,-344.07 484.58,-640.19 897.73,-852.55 1088.91,-559.68 2895.85,-538.55 5111.56,666.79 138.98,75.61 277.16,151.27 414.48,226.44 1916.34,1049.22 3675.87,2012.43 5334.27,1629.96 756.7,-35.71 1465.31,-171.94 2094.14,-406.88 821.07,-306.75 1506.71,-781.77 1987.66,-1421.12 50.31,-67.08 36.71,-162.26 -30.37,-212.57 -67.08,-50.32 -162.26,-36.72 -212.58,30.36 -444.61,591.05 -1083.18,1031.95 -1850.7,1318.71 -303.85,113.51 -627.83,202.84 -967.98,267.82 41.65,-25.61 83.27,-51.9 124.8,-79.67 999.25,-668 1725.14,-2217.29 2156.06,-4007.63 485.73,-2018.1 604.54,-4359.7 318.42,-6071.63 -122.73,-734.32 -229.21,-1367.92 -414.45,-2129.78 -184.27,-757.86 -444.06,-1631.08 -871.18,-2836.46l0.15 -0.05c-390.68,-1236.25 -596.79,-2187.57 -820.39,-3219.64 -162.1,-748.23 -333.37,-1538.73 -593.95,-2524.18 -311.08,-1176.44 -561.02,-2328.69 -718.48,-3288.02 -151.87,-925.21 -217.49,-1663.85 -167.91,-2059.21 68.38,-545.19 278.63,-966.22 567.47,-1250.43 223.84,-220.27 496.41,-359.22 786.38,-410 291.31,-51.02 601.06,-13.44 897.86,119.6 399.67,179.13 778.19,531.22 1064.23,1073.27 715.13,1355.24 1154.73,3007.72 1574.57,4585.92 64.34,241.88 128.14,481.66 165.42,619.8l0.49 -0.13c547.39,2088.85 1198.9,3728.68 1924.09,5553.94l477.27 1201.88 -0.54 0.19c296.11,802.41 672,1343.64 1047.23,1598.95 218.51,148.67 441.83,208.83 658.28,177.35 218.95,-31.83 417.66,-154.13 583.63,-369.9 273.56,-355.62 465.57,-994.84 503.66,-1931.66 64.2,-1263.5 170.06,-2717.69 290.3,-4166.41 122,-1469.79 254.34,-2886.37 372.46,-4086.37 105.71,-1073.84 187.16,-2024.42 247.26,-2956.89 60.03,-931.14 99.45,-1856.88 121.31,-2884.62 23.18,-1089.88 602.75,-1786.45 1324.12,-2080.73 292.67,-119.4 607.57,-173.97 917.52,-163 309.11,10.93 613.97,86.75 887.47,228.09 651.93,336.93 1126.41,1057.67 1054.54,2175.65 -107.23,1668.35 -377.41,3332.92 -462.34,5003.07 -109.45,2152.31 -322.08,4287.55 -341.58,6446.79 -8.1,896.62 -76.81,1786.68 -104.33,2681.46 -34.31,1114.81 91.97,1861.86 302.24,2234.3 125.14,221.64 288.39,341.1 479.55,358.25 184.75,16.58 368.08,-68.22 540.29,-254.4 313.24,-338.61 640.88,-1093.54 892.07,-2256.96 546.63,-2531.77 2116.51,-6189.38 2984.34,-8490.16 172.29,-458.3 334.74,-958.92 500.04,-1468.35 238.05,-733.63 482.14,-1485.78 756.3,-2119.44 389.58,-900.43 1018.09,-1373.42 1647.52,-1490.62 286.46,-53.34 573.98,-33.13 838.87,53.83 262.93,86.32 503.77,239.29 699.01,452.12 421.53,459.47 630.76,1202.11 400.84,2166.91 -421.17,1767.33 -1139.97,3785.28 -1745.14,5520.74 -596.93,1711.78 -1071.82,3431.87 -1707.99,5124.07 -800.56,2129.42 -1630.16,4336.06 -363.55,5168.67l15.65 10.29 16.11 7.57c701.69,330.06 1373.58,146.09 1974.66,-235.55 558.61,-354.67 1050,-882.24 1437.77,-1301.63l10.92 -11.91c516.7,-633.28 912.51,-996.34 1355.19,-1402.34 553.91,-508.04 1179.6,-1081.94 2206.3,-2326.63l0.29 0.24 1626.52 -1923.04 10.92 -13.9c612.35,-834.6 1396.62,-1174.28 2033.99,-1112.02 258.06,25.22 490.77,117.97 674.01,271.38 181.2,151.69 315.59,365.89 379.58,636.08 173.52,732.57 -155.61,1850.6 -1396.35,3254.86l-2.97 2.98c-659.3,769.33 -961.22,1283.71 -1301.12,1862.77 -190.85,325.14 -394.03,671.28 -679.75,1092.78 -672.96,992.73 -1585.56,1995.5 -2365.22,2852.16 -440,483.48 -838.17,920.99 -1134.76,1292.63 -867.9,1087.5 -1564.53,4366.31 -2057.37,6685.97 -96.32,453.41 -185.03,870.85 -256.58,1189.21 -296.51,1319.07 -685.74,2481.41 -1104.71,3491.31 -419.61,1011.43 -867.24,1866.66 -1281.09,2572.5 -392.8,669.99 -699,1156.35 -934.41,1530.29l-16.28 25.86c-8.18,9.49 -15.76,19.7 -22.64,30.64 -359.18,570.35 -998.64,1177.02 -1830.83,1620.85 -696.98,371.72 -1526.87,627.1 -2437.55,648.66 -139.76,3.28 -250.39,119.26 -247.11,259.02 3.28,139.75 119.26,250.39 259.02,247.11 996.18,-23.58 1902.95,-302.4 2663.83,-708.19 316.15,-168.62 607.5,-359.53 870,-563.5 -72.32,368.49 -83.74,817.08 -103.64,1599.5 -11.27,443.68 -25.38,998.47 -55.71,1724.79 -42.26,1012.43 -81.39,2037.2 -108.52,2748.48 -15.09,395.45 -26.38,690.96 -33.17,848.89zm-13094.11 -2693.58c-59.5,-9.92 -119.13,16.28 -151.57,67.26 -57.46,90.29 -4.2,210.92 101.49,228.54 198.56,33.44 397.58,64.11 596.98,92.08 84.52,11.45 160.43,-47.54 170.14,-132.3 8.43,-80.94 -47.54,-152.99 -128.1,-164.74 -196.72,-27.59 -393.05,-57.84 -588.94,-90.84zm12311.2 605.34c59.47,-5.52 110.69,-45.9 129.04,-102.92 33.28,-102.21 -49.25,-205.77 -156.28,-195.84 -116.92,10.57 -233.84,20.78 -350.83,30.54 -98.12,8.09 -161.79,106.83 -129.09,199.65 22.85,64.13 85.81,104.93 153.71,99.33 117.86,-9.79 235.66,-20.1 353.45,-30.76zm-1253.85 96.61c126.07,-7.8 186.54,-160.1 99.97,-252.25 -30.81,-32.83 -74.03,-49.93 -118.97,-47.15 -199.02,12.56 -398.05,24.02 -597.2,34.37 -53.62,2.76 -101.81,33.98 -126.08,81.92 -52,102.74 26.54,223.6 141.48,217.68 200.35,-10.44 400.57,-21.93 600.8,-34.57zm-1502.59 73.45c133.59,-5.51 194.42,-166.91 97.35,-259.5 -29.62,-27.38 -67.12,-41.57 -107.49,-40.32 -199.42,6.8 -398.8,12.72 -598.27,17.6 -124.5,3.85 -190.58,145.98 -113.28,243.99 29.84,36.64 73.21,56.91 120.5,55.93 200.45,-4.95 400.79,-10.86 601.19,-17.7zm-1503.42 32.55c122.68,-1.26 192.51,-141.65 118.74,-240.01 -29.12,-38.12 -73.07,-60.47 -121.24,-59.97 -199.51,1.72 -399.01,2.54 -598.53,2.35 -119.73,0 -190.87,132.45 -125.23,232.93 28.48,41.89 73.87,67.07 124.79,67.07 200.5,0.18 400.98,-0.64 601.47,-2.37zm-1503.62 -5.07c137.99,1.42 205,-166.99 103.72,-260.6 -27.53,-25.07 -61.68,-38.59 -98.9,-39.36 -199.52,-3.13 -399,-7.14 -598.48,-12.14 -58.94,-1.22 -111.55,30.6 -138.14,83.14 -48.3,99.02 20.49,213.36 130.54,216.76 200.41,4.99 400.81,9.06 601.26,12.2zm-1503.03 -41.39c54.95,2.27 105.91,-25.51 134.49,-72.34 58.84,-97.64 -8.63,-222.73 -122.39,-227.42 -199.31,-7.94 -398.68,-16.58 -597.9,-26.7 -119.13,-6.14 -197.71,123.98 -136.45,226.53 25.46,43.17 71.41,70.52 121.35,73.09 200.17,10.33 400.62,18.86 600.9,26.84zm-1501.69 -78.63c57.48,3.56 110.38,-24.81 139.59,-74.35 55.34,-97.15 -8.5,-216.97 -119.93,-225.01 -198.99,-12.79 -397.98,-27.21 -596.79,-42.46 -134.04,-9.67 -212.49,146.82 -124.24,248.53 26.75,29.87 61.17,47.29 101.2,50.59 199.94,15.34 400.06,29.84 600.17,42.7zm-1499.74 -120.38c135.05,12.53 216.28,-145.55 127.31,-248.09 -26.23,-29.29 -59.24,-46.47 -98.43,-50.51 -198.3,-19.02 -396.51,-39.54 -594.5,-61.63 -54.84,-6.28 -108.17,18.24 -139.83,63.29 -64.8,93.46 -6.5,221.9 106.35,234.83 199.49,22.34 399.28,42.94 599.1,62.11zm12492.26 -18883.62c29.41,-81.1 -13.96,-169.1 -96.28,-195.05 -76.87,-23.39 -157.12,16.14 -185.26,91.45 -69.02,187.65 -137.55,375.49 -206.9,563.02 -47.33,130.52 91.15,249.71 213.13,183.32 32.15,-18.13 55.36,-44.76 68.31,-79.42 69.39,-187.63 137.98,-375.56 207,-563.32zm-4453.81 6652.09c-90.78,86.89 -40.7,240.29 84.2,257.13 44.88,6.05 90.48,-9.05 123.16,-40.33 145.78,-139.13 289.49,-280.45 430.97,-423.95 53.16,-53.95 57.66,-139.4 10.45,-198.61 -56.17,-70.45 -161.09,-75.94 -224.31,-11.79 -139.31,141.35 -280.9,280.53 -424.47,417.55zm1034.63 -1068.35c-78.53,89.58 -27.95,229.29 89.84,247.82 51.23,7.4 100.03,-10.46 134.68,-48.84 134.06,-150.88 265.89,-304.17 393.95,-460.18 44.01,-54.1 45.46,-130.29 3.37,-185.91 -59.38,-77.09 -173.44,-79.2 -235.43,-4.21 -126.04,152.93 -254.78,303.18 -386.41,451.32zm930.86 -1156.23c-72.79,100.88 2.28,241.87 126.73,237.72 47.24,-2.1 88.55,-23.86 116.51,-62.12 118.59,-163.79 233.15,-330.67 344.19,-499.67 68.12,-104.11 -13.11,-241.39 -137.37,-231.73 -46.65,4.15 -87.82,27.98 -113.57,67.33 -108.6,165.21 -220.54,328.33 -336.49,488.47zm798.25 -1248.66c-66.35,119.99 48.25,258.46 178.4,215.59 36.07,-12.16 64.44,-35.92 83.3,-68.93 99.08,-176.26 193.74,-355.12 284.79,-535.65 25.79,-52.17 20.24,-112.66 -15.13,-158.97 -67.9,-87.3 -202.92,-74.6 -252.85,24.13 -89.13,176.54 -181.59,351.43 -278.51,523.83zm654.9 -1331.46c-20.65,48.38 -15.04,101.53 14.46,144.92 67.87,96.59 213.67,81.93 261,-26.08 79.94,-184.81 156.96,-371.31 231.12,-558.51 40.1,-103.11 -38.59,-211.09 -149.12,-205.02 -58.48,4.5 -107.87,39.74 -129.74,94.42 -73.36,184.45 -148.91,368.08 -227.72,550.27zm1686.91 6166.35c112.58,-69.17 87.62,-239.37 -40.24,-273.17 -40.3,-10.19 -80.4,-4.38 -116.04,17.09 -171.93,105.1 -342.33,211.94 -511.29,321.76 -114.54,74.95 -77.81,251.08 57.46,273.88 37.35,5.87 74.01,-1.64 105.82,-22.2 166.63,-108.31 334.7,-213.76 504.29,-317.36zm-4620.42 6278.74c-25.5,134.58 126.77,230.35 236.98,148.82 30.29,-22.72 50.08,-54.47 57.5,-91.56 37.67,-194.97 78.08,-388.97 121.83,-582.67 18.87,-85.35 -37.01,-167.84 -123.45,-181.49 -78.3,-11.66 -151.22,37.87 -169.09,115.03 -44.48,196.74 -85.51,393.83 -123.77,591.87zm351.65 -1472.45c-15.08,51.93 -2.34,104.96 33.99,144.86 79.63,84.77 220.13,51.71 253.63,-59.56 55.83,-189.39 116.04,-377.22 181.8,-563.4 45.34,-130.35 -92.59,-247.51 -213.84,-181.51 -32.69,18.21 -56.13,45.99 -68.88,81.15 -67.53,191.15 -129.38,384.01 -186.7,578.46zm532.67 -1425.53c-53.32,114.44 46.82,238.36 170.22,210.32 44.67,-10.66 80.82,-40.27 100.74,-81.54 84.1,-177.93 173.48,-350.62 270.9,-521.63 68.37,-119.65 -45.83,-260.17 -177.22,-217.39 -35.04,11.54 -63.94,35.44 -82.5,67.25 -101.94,175.21 -195.52,359.73 -282.14,542.99zm790.66 -1308.86c-82.17,107.24 7.19,259.55 141.4,239.95 38.66,-6.08 71.97,-25.7 96.04,-56.59 119.66,-155.67 244.77,-304.51 377.5,-449.2 88.38,-96.41 20.14,-251.63 -111.04,-251.63 -41.81,0 -81.19,17.81 -109.58,48.35 -138.62,150.95 -269.42,306.64 -394.32,469.12zm1055.71 -1104.85c-93.07,79.24 -56.62,231.2 62.51,259.96 47.41,10.78 95.11,-0.17 132.29,-31.82 149.48,-128.13 303.61,-250.74 460.85,-369.19 105.11,-79.17 64.53,-246.02 -65.36,-267.91 -40.78,-6.87 -81.64,3.36 -114.76,27.99 -162.24,122.2 -321.31,248.78 -475.53,380.97zm-1449.57 -457.32c67.65,-103.39 -12.19,-240.03 -135.68,-231.8 -47.36,3.68 -89.22,27.59 -115.34,67.52 -108.72,165.46 -220.33,327.94 -336.63,488.16 -73.29,101.58 3.13,243.29 128.4,237.72 46.55,-2.59 87.17,-24.26 114.74,-61.98 71.32,-98.25 140.84,-197.37 209.48,-297.51 45.55,-67.08 90.5,-134.35 135.03,-202.11zm-8129.77 4445.41c-138.66,17.33 -181.1,196.68 -64.86,274.17 29.61,19.74 65.03,27.77 100.3,23.73 199.72,-22.79 400.87,-50.46 599.6,-80.81 58.69,-9.17 105.58,-50.89 121.8,-107.97 28.79,-105.58 -59.22,-204.32 -167.24,-188.57 -195.5,29.74 -393.14,57.04 -589.6,79.45zm1466.31 -237.98c-61.21,13.53 -106.37,61.34 -116.66,123.11 -16.07,104.48 76.35,191.95 179.7,170.19 197.87,-42.22 394.87,-88.26 590.61,-139.52 55.54,-14.77 97.61,-59.38 108.89,-115.76 20.91,-109.49 -77.5,-201.87 -185.41,-174.32 -191.06,50.26 -383.93,95.07 -577.13,136.3zm1427.24 -393.45c-121.84,42.84 -136.53,208.99 -23.86,272.55 38.28,20.84 81.25,25.11 122.6,10.73 191.44,-66.32 382.06,-138.23 569.19,-215.9 105.86,-45.2 125.24,-185.33 34.55,-256.86 -43.5,-33.23 -99.06,-40.98 -149.81,-20.12 -181.73,75.39 -366.76,145.2 -552.67,209.6zm1355.22 -585.18c-43.72,22.88 -72.34,65.12 -78.9,113.8 -14.75,120.67 111.22,207.88 218.74,151.62 179.33,-94.04 357.99,-195.39 530.4,-301.6 114.73,-71.36 84.53,-245.8 -47.83,-274.38 -38.32,-7.84 -76.42,-1.37 -109.81,19.14 -168.24,102.19 -338.24,199.99 -512.6,291.42zm1243.98 -790.12c-106.31,81.45 -61.59,250.3 71.26,268.21 39.93,4.88 77.97,-5.02 110.16,-29.27 162.19,-122.51 319.95,-250.47 473.98,-383.08 104.32,-91.46 41.39,-261.91 -98.04,-263.46 -37.23,0.41 -69.77,12.36 -98.18,36.54 -149.31,128.46 -302,252.34 -459.18,371.06zm1102.11 -980.24c-88.62,92.59 -27.88,246.42 100.57,253.64 43.28,2.4 85.99,-14.68 115.93,-45.96 140.8,-146.14 277.12,-296.52 409.21,-450.56 82.82,-97.29 13.63,-247.36 -114.27,-247.36 -43.83,0 -85.54,19.27 -113.95,52.64 -128.16,149.62 -260.8,295.73 -397.49,437.6zm-12509.57 -10340.43c-128.4,-21.4 -221.39,120.97 -150.14,230.02 23.03,35.26 59.44,59 100.98,65.92 193.2,32.69 382.01,74.32 571.04,125.95 123.72,32.9 229.16,-93.06 174.72,-209.09 -19.33,-40.16 -53.35,-68.6 -96.32,-80.49 -198.57,-54.23 -397.32,-98.04 -600.28,-132.31zm5776.65 6844.33c12.42,119.22 151.79,176.1 244.62,100.51 38.75,-32.57 59.03,-80.48 53.82,-131.05 -20.21,-203.67 -47.26,-403.26 -81.11,-605.1 -20.9,-118.04 -163.85,-164.89 -251.13,-82.9 -36.74,35.61 -52.81,84.03 -44.39,134.54 32.63,194.83 58.68,387.4 78.19,584zm-276.3 -1444c37.56,124.74 203.4,146.63 272.01,35.68 22.07,-36.94 27.81,-78.99 15.79,-120.4 -58.24,-196.76 -122.02,-387.7 -194.39,-579.71 -20.82,-54.13 -69.71,-91.08 -127.5,-96.16 -110.64,-8.6 -191.71,98.98 -152.9,202.84 69.66,184.67 131.01,368.49 186.99,557.75zm-548.97 -1360.97c64.57,120.72 242.79,99.97 277.91,-32.88 9.21,-36.85 4.91,-73.7 -12.71,-107.38 -96.44,-181.82 -196.95,-355.3 -306.39,-529.6 -26.93,-42.47 -72.48,-67.78 -122.56,-69.45 -120.06,-2.67 -194.9,129 -130.56,230.47 105.12,167.49 201.68,334.12 294.31,508.84zm-810.22 -1223.19c80.42,97.28 237.56,58.11 262.88,-65.67 8.71,-45.08 -2.2,-89.28 -31.22,-124.95 -130.73,-158.61 -264.21,-308.97 -406.17,-457.61 -92.29,-95 -253.32,-32.82 -257.75,99.98 -1.35,40.61 14.1,79.32 42.11,108.58 136.31,142.73 264.63,287.39 390.15,439.67zm-1037.83 -1037.84c96.21,78.25 240.49,12.4 244.63,-111.87 1.55,-46.53 -19.18,-91.47 -55.25,-120.81 -158.25,-128.62 -320.4,-252.95 -488.33,-368.73 -78.54,-54 -185.62,-22.25 -223.23,65.17 -27.51,65.72 -5.67,141.52 53.17,181.97 160.76,110.87 317.89,230.61 469.01,354.27zm-1221.79 -813.12c115.45,60.41 248.06,-45.21 214.72,-171.33 -11.28,-40.9 -37.46,-74.51 -75.22,-94.27 -179.92,-95.02 -365.29,-184.27 -552.84,-263.75 -54.19,-22.28 -113.34,-12.61 -157.59,25.78 -82.5,74.01 -60.91,207.12 41.07,250.66 180.06,76.52 356.88,161.55 529.86,252.91zm-1439.76 -3283.57c-23.4,-2.74 -45.61,0 -65.73,7.01l-1.98 0.69 -2.09 0.78c-32.24,12.11 -58.23,35 -75.18,63.26 -18.11,29.86 -26.14,65.89 -19.94,102.15l0.16 1.08 0.04 0.2c4.42,25.31 15.73,50.33 35.14,72.7 1.09,1.22 2.19,2.42 3.31,3.59l0.42 0.45 0.1 0.11c74.98,79.83 521.67,158.35 643.79,196.7 85.45,25.73 172.45,-25.69 191.22,-112.95 3.15,-15.44 3.84,-30.83 2.31,-45.75 48.17,-91.2 -7.55,-203.56 -111.76,-218.76 -199.91,-27.64 -398.97,-51.46 -599.81,-71.26zm5916.56 16333.73c-65.66,109 26.19,245.31 152.33,225.47 43.53,-6.85 81.97,-33.02 104.69,-70.73 104.09,-174.16 204.66,-348.42 301.84,-526.54 60.36,-111.54 -37.36,-243.49 -161.75,-218.33 -43.78,8.96 -80.88,36.35 -102.17,75.69 -95.03,174.2 -193.23,344.27 -294.94,514.44zm692.22 -1309.82c-52.35,116.47 55.86,241.43 178.66,205.73 42.59,-12.73 76.36,-41.79 94.78,-82.31 84.09,-184.38 162.91,-370.44 237.96,-558.67 45.79,-117.74 -64.37,-235.81 -185.05,-197.92 -43.58,14.19 -77.04,45.38 -94.07,87.96 -73.27,183.7 -150.21,365.25 -232.28,545.21zm527.31 -1382.15c-15.67,52.04 -2.04,108.6 35.81,147.65 79.56,82.09 218.47,48.38 251.41,-61.03 59.45,-194.21 113.68,-388.09 163.37,-585.03 16.54,-67.61 -14.86,-137.33 -76.72,-169.38 -87.03,-44.04 -190.33,2.7 -214.46,97.2 -48.5,192.09 -101.42,381.15 -159.41,570.59zm338.63 -1439.49c-20.68,132.35 128.24,223.58 236.72,144.82 32.17,-23.36 52.96,-58.12 59.48,-97.22l3.19 -19.37c30.45,-194.69 56.59,-387.97 77.28,-583.96 11.47,-123.64 -120.91,-207.31 -227.2,-143.27 -40.49,25.04 -66.34,65.61 -71.28,113.05 -20.05,189.9 -45.5,378.08 -75,566.58l-3.19 19.37zm131.96 -1470.38c-0.88,85.83 70.48,154.92 156.23,151.35 79.79,-3.32 142.93,-68.54 143.75,-148.39 2.72,-195.97 0.43,-389.36 -6.43,-585.22l-1.01 -23.19c-2.83,-54.95 -33.94,-102.42 -82.99,-127.25 -103.25,-50.37 -221.4,26.6 -216.67,141.37l0.89 20.79c6.7,190.98 8.88,379.46 6.23,570.54zm-82.06 -1474.69c6.8,50.19 37.8,92.39 83.09,114.75 107.76,51.88 230.25,-36.53 214.19,-155.13 -26.52,-201.35 -57.55,-401.01 -95.13,-600.62 -14.46,-72.29 -76.29,-122.51 -150,-121.73 -93.28,1.98 -161.98,86.62 -144.62,178.27 36.52,194.29 66.66,388.48 92.47,584.46zm-293.04 -1448.69c33.83,121.01 193.33,148.9 266.5,46.73 26.46,-37.14 34.66,-83.71 22.38,-127.65 -54.12,-196.06 -114.43,-389 -178.79,-581.9 -42.85,-123.18 -211.35,-137.1 -273.77,-22.43 -20.11,37.82 -23.53,79.59 -9.85,120.19 62.45,187.34 120.97,374.68 173.53,565.06zm-491.79 -1394.03c48.1,109.77 198.08,121.76 263.59,21.49 27.29,-43.21 31.59,-94.14 11.49,-141.21 -80.45,-186.69 -165.97,-369.49 -255.63,-551.91 -54.79,-108.34 -208.08,-110.31 -266.11,-3.7 -23.18,44.15 -24.04,93.68 -1.91,138.46 87.18,177.44 170.32,355.29 248.57,536.87zm-674.18 -1316.96c36.85,61.17 110.89,87.93 178.29,64.45 89.39,-31.49 127.99,-137.41 79.01,-218.71 -103.51,-173.98 -212.54,-345.35 -325.1,-513.61 -72.91,-108.02 -239.7,-77.78 -270.29,48.95 -9.84,41.23 -1.99,83.45 21.49,118.67 109.62,163.88 215.79,330.81 316.6,500.25zm-838.56 -1218.8c44.94,55.99 121.95,73.06 186,40.27 84.21,-43.63 107.81,-152.27 49.04,-226.71 -125.4,-159.11 -254.42,-315.27 -387.78,-467.77 -33.53,-38.24 -85.13,-57.08 -135.4,-49.17 -117.11,18.42 -167.91,158.27 -89.8,247.37 129.99,148.66 255.71,300.92 377.94,456.01zm-987.5 -1102.12c77.58,74.26 203.74,47.74 244.09,-51.95 22.19,-57.15 9,-119.83 -34.73,-162.93 -144.86,-141.99 -293.02,-279.42 -444.95,-413.82 -97.01,-85.05 -249.02,-16.12 -249.02,113.35 0,42.68 18.92,83.9 50.98,112.01 148.09,130.98 292.44,264.95 433.63,403.34zm-1122.31 -962.28c43.82,32.02 99.66,38.23 149.44,16.64 105.52,-47.04 121.29,-189.17 28.68,-258.04 -163.22,-121.24 -328.39,-236.73 -497.89,-349 -111.55,-72.99 -255.79,24.66 -229.29,155.71 8.06,39.38 31.12,72.73 64.49,94.97 164.99,109.3 325.69,221.7 484.57,339.72zm-1245.19 -791.7c91.45,47.85 202.08,-8.72 217.91,-110.51 9.71,-63.08 -22.32,-125.72 -78.79,-155.27 -133.38,-70.44 -267.01,-137.34 -403.4,-201.76 136.67,29.53 272.54,60.62 408.5,93.25 116.61,28.53 218.34,-86.61 175.57,-198.89 -17.75,-46.6 -56.57,-80.84 -105.01,-92.69 -196.64,-47.19 -393.1,-91.07 -591.24,-131.53 -126.57,-25.31 -224.02,110.35 -159.4,222.36 7.48,12.7 16.55,24.08 26.94,33.91 -18.58,5.13 -36.35,13.9 -52.36,26.13 -89.54,69.64 -72.34,210.3 31.59,255.84 180.19,81.47 354.82,166.81 529.69,259.16zm12650.46 7414.28c90.98,92.32 248.23,34.06 256.85,-95.31 2.41,-43.3 -12.25,-83.43 -42.53,-114.61 -140.35,-143.62 -281.78,-286.18 -424.44,-427.5 -39.47,-38.9 -96.9,-53.05 -149.86,-36.62 -107.94,33.5 -141.54,170.65 -61.04,249.98 141.53,140.17 281.8,281.6 421.02,424.06zm-1065.36 -1047.14c41.81,38.87 99.41,50.87 153.28,32.08 105.8,-38.59 133.64,-172.71 52.36,-250.5 -146.09,-137.81 -293.29,-274.38 -441.62,-409.78 -102.29,-92.34 -264.06,-10.57 -250.17,126.82 4.15,37.39 20.61,69.36 48.13,94.94 147.12,134.29 293.13,269.75 438.02,406.44zm-1107.6 -1002.16c81.61,69.48 205.01,36.03 240.34,-65.26 19.45,-58.35 2.33,-120.95 -43.9,-161.48 -151.72,-131.65 -304.72,-261.67 -458.58,-390.82 -46.56,-38.49 -108.93,-45.76 -163.16,-19.31 -97,49.1 -112.12,178.94 -29.44,249.33 152.58,128.03 304.29,257 454.74,387.54zm-1149.05 -953.54c97.68,77.11 241.67,8.37 243.05,-116.18 0,-46.83 -20.03,-89.97 -56.95,-119.12 -157.46,-124.8 -315.87,-248.21 -475.48,-370.25 -98.29,-75.31 -240.98,-4.65 -240.98,119.54 0.53,47.33 21.36,90.13 59.04,119 158.25,120.89 315.25,243.32 471.32,367.01zm-1190.43 -900.87c44.87,31.81 101.38,37.05 151.29,13.92 103.49,-49.22 116.57,-190.6 23.65,-257.64 -163.12,-117.39 -327.1,-233.35 -492.37,-347.7 -108.42,-74.54 -253.81,16.83 -233.34,146.95 6.36,40.45 29.18,76.74 62.94,99.95 163.75,113.3 326.2,228.21 487.83,344.52zm-1231.68 -842.86c114.36,72.52 257.37,-28.37 227.21,-161.09 -9.71,-38.4 -31.24,-69.19 -64.47,-90.93 -168.77,-109.27 -338.43,-216.71 -509.3,-322.67 -47.06,-28.92 -104.49,-29.9 -152.68,-3.06 -99.22,56.52 -102.03,197.93 -5.12,258.2 169.2,104.94 337.23,211.34 504.36,319.55zm-1272.97 -778.22c87.59,50.05 198,1.75 220.93,-96.53 14.47,-65.1 -13.92,-130.01 -71.55,-163.63l-68.45 -39.22c-152.07,-86.49 -304.59,-171.77 -458.22,-255.47 -105.08,-56.87 -231.62,26 -221.02,145.21 5.09,50.92 32.95,93.59 77.8,118.39l96.49 52.78c141.98,78.39 283.45,157.57 424.02,238.47zm-1313.73 -705.04c65.25,32.25 143.65,13.75 187.23,-44.61 55.75,-75.65 30.39,-181.52 -53.39,-223.89 -180.17,-89.85 -361.41,-177.15 -543.71,-262.6 -115.83,-53.97 -242.04,52.7 -208.03,175.99 11.66,42.26 41.35,77.33 81.07,95.83 158.66,74.36 316.22,150.24 473.37,227.74l63.46 31.54zm-1353.89 -621.43c50.72,20.85 106.31,13.32 149.83,-19.93 90.64,-71.49 71.77,-211.65 -34.23,-256.91 -185.91,-77.97 -372.62,-152.48 -560.48,-225.56 -53.64,-20.63 -113.89,-8.94 -156.05,30.07 -80.96,76.05 -55.33,209.6 48.21,249.87 185.25,71.69 369.53,145.63 552.72,222.46zm-1392.99 -525.03c129.22,42.14 243.33,-93.43 179.6,-213.3 -18.55,-34.07 -47.81,-58.86 -84.62,-71.26 -191.75,-63.73 -383.45,-124.25 -576.94,-182.45 -125.01,-36.29 -233.26,90.57 -177.7,208.99 19.09,38.65 51.14,66.2 92.5,78.65 189.97,57.15 379.07,116.25 567.16,179.37zm9603.83 -2695.14c39.68,-121.69 -82.61,-234.61 -200.74,-184.8 -40.25,16.97 -70.91,50.18 -84.46,91.74 -62.15,190.55 -123.44,381.39 -183.88,572.49 -40.5,129.87 97.63,242.26 216.84,175.86 33.76,-19.48 57.07,-48.19 69.16,-85.28 60.18,-190.28 121.24,-380.26 183.08,-570.01zm-3085.76 9062.77c-40.58,120.43 76.9,233.69 195.8,188.39 42.18,-16.57 73.26,-48.79 88.16,-91.63 62.19,-182.56 123.43,-365.37 184.42,-548.34 36.74,-112.66 -63.35,-220.28 -178.48,-192.81 -50.36,12.59 -89.72,49.26 -106.28,98.41 -60.73,182.18 -121.75,364.18 -183.62,545.98zm461.72 -1400.18c-40.13,127.3 92.85,239.81 211.67,178.91 35.74,-18.32 61.69,-49.59 74.11,-87.67 60.94,-190.84 121.24,-381.87 180.96,-573.1 39.14,-125.53 -91.62,-237.43 -209.64,-179.15 -36.89,18.22 -64.49,50.51 -76.74,89.79 -59.59,190.58 -119.62,381 -180.36,571.22zm444.38 -1430.31c-35.42,117.63 77.79,225.77 193.76,184.84 45.08,-16.44 79.47,-51.74 93.36,-97.88 57.19,-191.86 115.61,-383.4 172.78,-575.29 35.42,-121.99 -84.22,-229.31 -202.14,-181 -41.75,18.11 -72.21,51.65 -85.36,95.34 -57.11,191.44 -115.34,382.56 -172.4,573.99zm427.05 -1436.48c-37.18,128.05 98.7,237.57 215.93,173.76 35.6,-19.83 60.22,-50.41 71.97,-89.44 56.25,-192.01 112.27,-384.09 168.22,-576.19 15.25,-52.52 0.84,-109.24 -37.86,-147.94 -4.23,-4.23 -8.62,-8.13 -13.15,-11.72 43.09,-39.43 63.64,-103.33 38.12,-167.52 -16.87,-40.01 -46.65,-69.04 -87.42,-84.27 -187.33,-68.59 -374.19,-138.36 -560.78,-208.92 -78.24,-29.23 -164.4,10.04 -193.64,88.29 -28.32,78.11 10.17,162.56 87.72,192.39 171.69,64.93 343.62,129.2 515.91,192.49 -16.62,16.84 -29.61,38.1 -36.94,63.34 -55.93,191.94 -111.87,383.87 -168.08,575.73zm419.45 -1439.93c-15.39,53.02 -0.79,108.7 37.84,147.95 80.54,80.54 218.45,45.31 250.2,-64.05 55.83,-191.96 111.78,-383.89 168.07,-575.71 37.42,-128.88 -99.92,-238.4 -217.46,-172.94 -34.66,19.55 -58.96,50.49 -70.42,88.54 -57.2,191.59 -112.39,384.19 -168.23,576.21zm423.55 -1440.06c-39.18,134.95 108.96,244.85 227.3,167.53 29.39,-20.25 49.81,-47.3 60.14,-81.61 57.12,-191.4 114.82,-382.61 172.96,-573.7 16.25,-53.98 1.58,-111.42 -38.59,-150.97 -81.07,-78.58 -214.87,-43.94 -248.39,63.55 -58.35,191.57 -116.15,383.31 -173.42,575.2zm7273.95 2567.06c129.43,55.26 256.57,-79.64 193.64,-205.5 -16.08,-31.37 -41.48,-55.37 -73.78,-69.52 -185.35,-80.59 -371.94,-157.48 -560.35,-230.63 -127.78,-49.15 -249.3,83.85 -188.63,206.72 17.31,33.78 44.35,59.07 79.87,72.88 184.62,71.68 367.68,146.97 549.25,226.05zm-3346.36 -1337.56c-57.12,-10.82 -114.02,10.78 -149.06,57.29 -65.83,89 -17.39,215.36 91.18,237.07 194.71,38.18 388.66,79.53 582.04,123.95 104.53,23.11 198.29,-64.25 181.81,-170.19 -10.08,-60.48 -54.65,-108.15 -114.39,-122.13 -196.19,-45.58 -393.92,-87.23 -591.58,-125.99zm1470.63 351.82c-128.59,-35.95 -236.36,99.37 -172.26,217.13 19.89,35.26 51.03,60.05 89.94,71.35 190.71,54.37 380.23,111.9 568.93,172.89 118.52,38.65 229.94,-76.87 187.09,-194.36 -16.04,-43.46 -50.47,-76.63 -94.53,-91 -192,-62.2 -385.08,-120.68 -579.17,-176.01zm1245.82 2715.32c60.12,11.39 119.52,-13.85 153.56,-64.57 58.56,-90.18 8.57,-208.94 -96.8,-230.01 -195.67,-37.86 -391.1,-76.77 -586.22,-117.37 -104.2,-20.84 -195.62,67.42 -178.32,172.37 10.85,61.04 56.64,108.58 117.38,121.37 196.51,40.89 393.33,80.1 590.4,118.21zm-17163.93 -6989.3c-108.47,-59.98 -238.81,30.52 -220.84,153.56 6.73,46.1 35.12,86.54 75.84,109.06 175.31,96.9 351,193.12 526.9,288.95 117.67,63.68 253.64,-46.79 215.29,-175.1 -11.58,-38.31 -36.94,-69.08 -71.91,-88.42 -175.36,-95.54 -350.51,-191.45 -525.28,-288.05zm1316.45 713.9c-123.07,-64.4 -259.69,56.85 -210.27,186.59 13.39,34.09 37.19,61.05 69.53,78.35 176.87,94.07 354.03,187.58 531.49,280.54 47.51,24.86 103.09,22.33 148.69,-5.51 98.43,-61.36 93.02,-206.61 -9.69,-260.35 -176.9,-92.6 -353.46,-185.86 -529.75,-279.62zm1327.82 692.22c-68.53,-34.66 -151.35,-12.71 -193.58,51.44 -48.77,75.03 -22.32,175.08 57.38,215.86 178.48,91.04 357.24,181.48 536.34,271.3 123.56,61.07 256.94,-61.29 206.4,-189.93 -13.96,-34.5 -38.86,-61.53 -72.08,-78.33 -178.48,-89.47 -356.61,-179.62 -534.46,-270.34zm1339.77 668.39c-121.68,-58.74 -253.05,60.32 -206.22,187.2 13.82,36.71 39.77,65.17 74.92,82.54 180.13,87.81 360.66,174.95 541.54,261.22 53.07,24.73 112.71,17.79 158.61,-18.55 85.96,-69.99 70.14,-204.13 -29.57,-252.27 -180.08,-86.06 -359.88,-172.68 -539.28,-260.14zm1352.18 642.22c-108.7,-49.41 -227.17,39.24 -211.41,157.46 8.03,51.06 38.54,92.96 85.59,114.88 181.93,84.15 364.22,167.54 546.87,250.11 117.35,52.74 242.43,-57.17 205.17,-180.43 -13.16,-41.9 -41.74,-74.82 -81.81,-93.03 -181.84,-82.17 -363.3,-165.22 -544.41,-248.99zm1365.18 613.6c-52.09,-22.24 -110.19,-14.57 -154.41,20.93 -87.26,71.05 -68.48,208.93 34.49,254.05 183.72,80.22 367.91,159.37 552.35,237.91 113.6,48.5 234.14,-54.69 204.18,-174.51 -11.59,-45.85 -43.35,-83.02 -86.84,-101.59 -183.58,-78.16 -366.91,-156.94 -549.77,-236.79zm1378.5 582.19c-111.51,-44.6 -226.51,50.56 -203.7,168.65 10.62,49.76 43.15,89.7 90.36,109.11 185.63,75.8 371.65,150.53 557.98,224.58 121.44,47.23 240.84,-69.9 195.68,-192.27 -15.23,-39.98 -45.36,-70.71 -85.1,-86.61 -185.41,-73.67 -370.51,-148.04 -555.22,-223.46zm2798.15 1058.6c-55.5,-19.3 -115.8,-4.55 -156.89,37.18 -76.28,78.7 -45.02,210.22 58.41,246.2 189.53,65.8 379.38,130.56 569.63,194.26 123.13,40.15 235.75,-81.91 185.46,-201.16 -17.3,-39.89 -49.22,-69.52 -90.48,-83.42 -189.1,-63.23 -377.77,-127.67 -566.13,-193.06zm1419.52 470.13c-118.85,-37.06 -228.65,78.41 -185.5,195.34 15.83,43.42 51.78,77.06 95.74,90.92 191.37,60.16 383.02,119.12 575.07,177.08 54.88,16.52 114.41,0.35 153.34,-41.72 75.23,-81.3 39.08,-213.64 -66.86,-245.54 -190.95,-57.63 -381.51,-116.26 -571.79,-176.08zm1433.03 426.52c-127.67,-35.31 -235.27,100.02 -171.82,216.59 19.9,35.72 51.76,61.35 91.24,72.39 193.23,54.02 386.64,106.91 580.49,158.65 115.5,30.72 218.88,-79.75 180.63,-193.17 -16.89,-47.87 -54.18,-83.64 -103.49,-96.75 -192.7,-51.43 -384.97,-104.01 -577.05,-157.71zm1445.95 379.7c-122.72,-30.03 -225.49,96.88 -170.52,211.05 19.46,40.42 56,69.78 99.54,80.43 194.98,47.61 390.19,94.09 585.8,139.04 134.05,29.63 234.31,-119.11 156.54,-231.96 -21.81,-31.04 -52.68,-51.83 -89.62,-60.48 -194.25,-44.7 -388.1,-90.8 -581.74,-138.08zm-7417.53 -6000.45c-2.25,-43.75 -22.24,-82.88 -56.4,-110.3 -101.57,-79.81 -248.57,-4.48 -243.26,124.38 9.24,199.15 17.63,398.4 24.31,597.65 5.59,135.63 171.69,195.31 262.61,93.79 25.48,-29.37 38.41,-65.28 37.21,-104.19 -6.72,-200.48 -15.15,-400.95 -24.47,-601.33zm-453.16 15605.63c2.78,134.66 167.34,197.98 259.74,99.62 26.88,-29.08 40.63,-65.29 40.22,-104.86 -3.54,-199.75 -6.71,-399.5 -9.44,-599.27 -2.92,-141.39 -179.36,-201.43 -268.1,-90.51 -21.28,27.47 -32.24,59.66 -31.88,94.45 2.71,200.2 5.91,400.38 9.46,600.57zm-18.64 -1501.5c1.2,116.67 127.56,187.18 227.85,127.26 45.59,-28.42 72.15,-75.38 72.15,-129.24 -1.33,-199.76 -2.29,-399.52 -2.74,-599.29 0,-78.19 -60.77,-143.56 -138.74,-149.3 -87.31,-6.43 -161.26,62.34 -161.26,149.86 0.45,200.24 1.41,400.47 2.74,600.71zm-1.76 -1501.72c0,134.36 161.52,201.34 256.82,106.04 27.87,-28.76 42.77,-64.48 43.18,-104.58 0.91,-199.78 2.18,-399.56 4,-599.34 1.28,-123.95 -140.91,-195.67 -240.08,-121.3 -37.45,28.09 -59.42,71.78 -59.9,118.56 -1.81,200.2 -3.1,400.41 -4.02,600.62zm14.95 -1501.51c-1.39,134.47 159.84,203.11 255.67,108.77 28.13,-28.13 43.47,-64.35 44.29,-104.11 3.05,-199.76 6.43,-399.54 10.4,-599.29 2.61,-126.75 -144.56,-199.36 -243.79,-119.98 -34.83,27.87 -55.23,69.52 -56.15,114.08 -3.95,200.16 -7.36,400.35 -10.42,600.53zm30.37 -1501.14c-2.79,135.17 159.26,205.09 255.89,109.97 27.69,-28.13 42.79,-62.9 44.01,-102.41 5,-199.79 10.24,-399.58 15.85,-599.36 2.18,-105.95 -99.89,-180.17 -200.14,-145.6 -58.61,21.13 -97.81,74.84 -99.74,137.18 -5.61,200.07 -10.86,400.14 -15.87,600.22zm42.76 -1500.36c-4.04,130.59 149.6,203.61 248.57,117.74 31.52,-28.23 49.96,-65.73 51.27,-108.24 6.28,-199.83 12.78,-399.65 19.41,-599.47 4.04,-130.7 -149.53,-203.9 -248.41,-118.11 -32,28.66 -49.66,65.14 -51.43,108.17 -6.62,199.96 -13.13,399.93 -19.41,599.91zm49.56 -1499.45c-1.8,58.22 29.5,111.59 81.21,138.4 98.73,49.97 214.08,-17.91 218.63,-128.36 6.68,-199.93 13.38,-399.86 19.9,-599.8 4.04,-130.71 -149.59,-203.76 -248.46,-117.97 -31.4,27.24 -50.1,66.65 -51.38,108.19 -6.52,199.85 -13.22,399.69 -19.9,599.54zm47.73 -1498.51c-2.22,107.51 102.63,181.97 203.5,144.44 56.84,-22.07 94.49,-74.83 96.38,-135.86 5.75,-200.13 11.13,-400.27 16.11,-600.42 2.77,-134.3 -158.15,-204.56 -254.71,-111.02 -28.4,27.52 -43.99,64.32 -45.21,103.72 -4.88,199.72 -10.33,399.44 -16.07,599.14zm34.38 -1497.62c-0.56,53.92 26.08,101.87 71.76,130.34 99.72,60.09 225.8,-9.4 228.2,-125.7 3.12,-200.4 5.49,-400.78 7.16,-601.19 0,-113.44 -118.75,-186.29 -219.74,-133.93 -49.3,26.5 -79.68,75.61 -80.26,131.75 -1.72,199.6 -4.01,399.15 -7.12,598.73zm8.13 -1496.64c1.2,116.67 127.56,187.18 227.85,127.26 45.59,-28.42 72.15,-75.38 72.15,-129.24 -1.22,-200.53 -3.55,-401.01 -6.83,-601.51 -2.38,-115.41 -127.36,-184.98 -226.84,-126.31 -46.62,28.46 -73.68,76.69 -73.12,131.39 3.28,199.47 5.57,398.92 6.79,598.41zm-3877.62 -5772.04c-45.32,-97.27 -172.74,-118.31 -246.32,-39.98 -41.14,45.13 -52.02,108.61 -26.64,164.44 89.89,193.97 189.83,366.55 310.48,542.93 29.77,43.31 80.64,68.15 133.13,64.65 116.18,-7.66 179.89,-138.88 113.97,-234.77 -110.53,-161.6 -202.28,-319.54 -284.62,-497.27zm10940.24 2790.28c116.41,-72.4 83.83,-249.21 -50.73,-275.2 -36.51,-7.05 -74.69,0.16 -106.33,19.6 -77.8,47.26 -155.74,92.11 -236.14,134.83 -113.47,59.37 -104.38,225.6 14.86,272.45 41.28,15.73 85.24,13.77 124.52,-6.79 86.42,-45.88 170.21,-94.09 253.82,-144.89zm-1105.61 503.63c125.16,-40.81 140.64,-211.69 24.98,-274.64 -36.54,-19.43 -78.18,-23.57 -117.64,-10.7 -187.91,60.71 -372.35,111.24 -564.64,156.09 -121.71,28.19 -158.5,181.47 -62.7,262 36.43,29.66 82.47,40.88 128.42,30.72 195.3,-45.52 383.63,-96.69 574.62,-157.89l16.96 -5.58zm-1495.4 314.14c123.61,-14.16 177.58,-161.81 92.2,-252.7 -33.01,-34.06 -77.58,-50.44 -124.8,-45.52 -196.39,20.99 -390.95,35.72 -588.26,44.72 -119.32,4.92 -185.12,141.39 -114.82,238.22 29.53,40.67 77.48,63.57 127.62,61.5 203.25,-9.21 405.77,-24.61 608.06,-46.22zm-1521.38 44.87c140.45,5.79 211.6,-165.18 108.08,-260.86 -26.46,-23.7 -58.14,-36.97 -93.66,-38.8 -197.55,-9 -393.83,-23.29 -590.64,-42.53 -95.98,-8.91 -174.28,70.67 -163.97,166.55 8.41,70.35 63.62,124.61 134.09,131.95 201.93,19.77 403.41,34.45 606.1,43.69zm-1508.85 -168.82c123.8,21.92 218.23,-109.04 158.05,-219.6 -22.32,-40.08 -59.89,-67.59 -105.19,-75.7 -194.79,-35.16 -386.89,-74.45 -579.84,-118.57 -47.68,-11.16 -95.76,1.16 -132.86,32.88 -92.02,81.19 -54.72,230.05 64.16,259.14 198.23,45.37 395.56,85.73 595.68,121.85zm-1474.99 -361.7c132.99,41.47 245.74,-102.89 173.11,-221.89 -19.6,-31.04 -46.98,-52.51 -81.93,-63.91 -188.59,-59.62 -374.28,-124.17 -559.45,-193.65 -51.49,-19.24 -106.58,-9.58 -149.06,25.01 -88.12,74.27 -64.5,214.27 42.94,255.59 190.07,71.37 380.8,137.64 574.39,198.85zm-1413.55 -560.09c123.37,59.56 255.34,-62.66 205.21,-190.26 -14.48,-35.34 -39.2,-62.32 -73.51,-79.28 -177.13,-86.99 -348.72,-177.87 -519.88,-276.12 -110.09,-64.22 -244.94,29.49 -223.52,155.15 7.3,43.29 34.16,81.7 72.04,103.79 177.64,102.03 355.78,196.44 539.66,286.72zm-1304.86 -794.44c103.77,79.51 252.41,-2.25 240.79,-132.95 -4.22,-41.77 -24.45,-79.23 -57.89,-104.85 -155.48,-118.67 -302.23,-243.29 -444.8,-377.16 -93.27,-89.28 -248.1,-27.24 -253.85,102.03 -1.89,42.59 15.1,84.72 45.89,114.19 150.61,141.52 305.56,273.33 469.86,398.74zm-13612.44 11701.87c-18.74,-81.88 -100.33,-133.07 -182.21,-114.33 -81.88,18.74 -133.07,100.34 -114.33,182.21 94.02,405.31 85.86,771.9 -41.85,1100.09 -128.09,329.24 -378.51,626 -768.89,891.37 -69.38,47.02 -87.51,141.41 -40.49,210.79 47.02,69.38 141.41,87.51 210.79,40.48 444.01,-301.83 731.41,-645.96 882.02,-1033.07 151.04,-388.16 162.59,-813.53 54.96,-1277.54zm4435.92 1020.56c-19.4,-81.56 -101.25,-131.94 -182.8,-112.54 -81.55,19.4 -131.94,101.25 -112.54,182.8 143.3,597.95 167.39,1359.28 -67.12,2026.32 -179.41,510.34 -512.46,965.18 -1063.64,1244.46 -74.97,37.81 -105.1,129.27 -67.28,204.23 37.81,74.97 129.26,105.1 204.23,67.29 630.2,-319.32 1010.01,-836.56 1213.7,-1415.94 255.35,-726.35 230.2,-1550.91 75.45,-2196.62zm4046.48 -19548.04c65.43,-52.61 75.83,-148.33 23.22,-213.77 -52.61,-65.44 -148.33,-75.83 -213.77,-23.22 -260.17,208.56 -666.57,398.57 -1094.71,525.55 -412.48,122.33 -840.35,184.67 -1171.37,146.98 -83.53,-9.21 -158.72,51.04 -167.93,134.57 -9.2,83.52 51.05,158.71 134.58,167.92 371.62,42.32 842.25,-24.78 1290.47,-157.71 463.69,-137.52 908.66,-347.16 1199.51,-580.32zm-1617.94 -5075.99c72.67,-41.76 97.73,-134.54 55.98,-207.21 -41.76,-72.67 -134.54,-97.73 -207.22,-55.98 -211.44,121.93 -287.25,177.12 -342.15,217.1 -230.31,167.7 -1082.76,486.51 -1348.68,367.29 -76.61,-34.19 -166.47,0.19 -200.66,76.81 -34.2,76.61 0.19,166.47 76.8,200.67 387.31,173.61 1326.57,-163.08 1651.17,-399.45 49.18,-35.8 117.06,-85.24 314.76,-199.23zm10583.43 -3063.75c71.69,-43.41 94.61,-136.72 51.21,-208.4 -43.4,-71.69 -136.71,-94.61 -208.4,-51.21 -195.79,118.73 -601.82,165.93 -1015.95,129.48 -368.15,-32.41 -732.57,-131.46 -947.19,-305.78 -65.11,-52.94 -160.83,-43.08 -213.78,22.03 -52.94,65.11 -43.08,160.83 22.03,213.78 266.07,216.09 691.71,336.57 1112.75,373.64 471.27,41.48 949.69,-22.16 1199.33,-173.54zm-398.06 6045.6c74.97,-37.81 105.1,-129.27 67.29,-204.23 -37.82,-74.97 -129.27,-105.1 -204.24,-67.29 -267.48,134.89 -675.54,214.31 -1091.42,212.98 -372.32,-1.2 -746.48,-67.88 -1024.26,-218.5 -73.99,-40.11 -166.51,-12.65 -206.62,61.34 -40.11,74 -12.65,166.51 61.34,206.63 323.28,175.29 749.63,252.85 1169.54,254.2 461.37,1.48 920.6,-89.93 1228.37,-245.13zm7218.48 2075.55c83.85,4.59 155.57,-59.65 160.17,-143.5 4.59,-83.85 -59.66,-155.58 -143.51,-160.17 -318.61,-17.65 -655.66,-47.1 -990.34,-131.06 -328.79,-82.49 -656.61,-218.04 -964.21,-448.14 -67.08,-50.31 -162.26,-36.72 -212.58,30.37 -50.31,67.08 -36.72,162.26 30.37,212.57 345.2,258.23 709.3,409.4 1072.58,500.54 357.38,89.66 712.59,120.84 1047.52,139.39zm1313.22 -4453.41c67.09,50.64 162.53,37.31 213.17,-29.77 50.64,-67.09 37.31,-162.53 -29.78,-213.17 -481.16,-364.03 -878.93,-428.41 -1268.14,-491.39 -223.55,-36.18 -444.06,-71.87 -671.27,-171.78 -76.95,-33.87 -166.79,1.06 -200.67,78.01 -33.87,76.95 1.06,166.79 78.01,200.66 260.7,114.64 501.82,153.66 746.29,193.22 351.35,56.86 710.43,114.98 1132.39,434.22zm-14970.42 9539.55c83.85,-2.3 149.96,-72.15 147.67,-156 -2.3,-83.85 -72.16,-149.97 -156.01,-147.67 -423.59,13.16 -814.26,93.76 -1187.42,234.08 -370.86,139.45 -723.86,337.65 -1074.46,587.09 -68.41,48.67 -84.4,143.58 -35.74,211.99 48.67,68.4 143.59,84.4 211.99,35.73 329.67,-234.54 660.12,-420.36 1005.38,-550.18 342.93,-128.96 701.13,-203.01 1088.59,-215.04zm6056.67 -410.69c76.28,35.18 166.68,1.86 201.86,-74.43 35.18,-76.29 1.86,-166.69 -74.43,-201.87 -293.85,-135.36 -747.03,-209.99 -1207.1,-227.93 -484.56,-18.89 -983.52,24.9 -1314.5,126.68 -80.24,24.67 -125.29,109.72 -100.62,189.96 24.66,80.24 109.71,125.29 189.95,100.63 299.38,-92.06 760.74,-131.28 1214.46,-113.6 423.07,16.5 833.6,82.28 1090.38,200.56zm5730.87 1607.09c63.79,54.59 159.77,47.12 214.36,-16.67 54.6,-63.79 47.13,-159.77 -16.66,-214.36 -328.57,-280.65 -702.96,-500.14 -1104.07,-656.72 -410.87,-160.38 -850.32,-255.05 -1297.69,-282.08 -83.85,-4.92 -155.84,59.06 -160.77,142.91 -4.93,83.85 59.05,155.84 142.9,160.77 415.46,25.1 823.45,112.97 1204.81,261.83 370.46,144.62 715.41,346.62 1017.12,604.32zm5746.64 3523.05c32.23,77.6 121.28,114.4 198.88,82.17 77.6,-32.22 114.4,-121.28 82.18,-198.88 -132.46,-318.88 -352.77,-578.51 -606.05,-794.26 -246.36,-209.86 -523.57,-377.54 -779.35,-517.61 -73.66,-40.11 -165.92,-12.92 -206.03,60.74 -40.11,73.66 -12.91,165.91 60.74,206.02 240.2,131.54 499.64,288.25 726.94,481.88 220.38,187.72 410.88,410.75 522.69,679.94zm2688.47 -2894.66c81.88,18.42 163.2,-33.05 181.61,-114.93 18.41,-81.87 -33.05,-163.19 -114.93,-181.61 -281.15,-64.14 -531.93,-222.2 -733.86,-413.93 -249.6,-237 -421.59,-521.02 -483.96,-742.61 -22.68,-80.89 -106.67,-128.08 -187.57,-105.39 -80.89,22.68 -128.07,106.67 -105.39,187.56 75.36,267.79 277.32,605.43 567.31,880.76 237.66,225.65 536.51,412.52 876.79,490.15zm2288.45 -2862.98c82.2,16.77 162.45,-36.29 179.22,-118.5 16.77,-82.2 -36.29,-162.45 -118.49,-179.22 -266.71,-54.89 -525.01,-188.85 -734.87,-364.65 -209.86,-175.8 -368.27,-390.56 -434.1,-606.07 -24.33,-80.24 -109.12,-125.56 -189.36,-101.23 -80.24,24.33 -125.55,109.11 -101.23,189.36 83.61,273.71 276.62,539.61 529.38,751.35 245.86,205.96 551.27,363.47 869.45,428.96z"/></g><text x="0" y="50015" fill="#000000" font-size="5px" font-weight="bold" font-family="'Helvetica Neue', Helvetica, Arial-Unicode, Arial, Sans-serif">Created by Oleksandr Panasovskyi</text><text x="0" y="50020" fill="#000000" font-size="5px" font-weight="bold" font-family="'Helvetica Neue', Helvetica, Arial-Unicode, Arial, Sans-serif">from the Noun Project</text></svg>