<?xml version="1.0" encoding="UTF-8" standalone="no"?>
<svg
   xmlns:dc="http://purl.org/dc/elements/1.1/"
   xmlns:cc="http://creativecommons.org/ns#"
   xmlns:rdf="http://www.w3.org/1999/02/22-rdf-syntax-ns#"
   xmlns:svg="http://www.w3.org/2000/svg"
   xmlns="http://www.w3.org/2000/svg"
   xmlns:sodipodi="http://sodipodi.sourceforge.net/DTD/sodipodi-0.dtd"
   xmlns:inkscape="http://www.inkscape.org/namespaces/inkscape"
   version="1.0"
   x="0px"
   y="0px"
   viewBox="0 0 53 80.625"
   enable-background="new 0 0 53 64.5"
   xml:space="preserve"
   id="svg2"
   inkscape:version="0.48.4 r9939"
   width="100%"
   height="100%"
   sodipodi:docname="plugin_icon.svg"><metadata
     id="metadata14"><rdf:RDF><cc:Work
         rdf:about=""><dc:format>image/svg+xml</dc:format><dc:type
           rdf:resource="http://purl.org/dc/dcmitype/StillImage" /><dc:title></dc:title></cc:Work></rdf:RDF></metadata><defs
     id="defs12" /><sodipodi:namedview
     pagecolor="#ffffff"
     bordercolor="#666666"
     borderopacity="1"
     objecttolerance="10"
     gridtolerance="10"
     guidetolerance="10"
     inkscape:pageopacity="0"
     inkscape:pageshadow="2"
     inkscape:window-width="1280"
     inkscape:window-height="957"
     id="namedview10"
     showgrid="false"
     inkscape:zoom="2.9271318"
     inkscape:cx="26.5"
     inkscape:cy="40.3125"
     inkscape:window-x="-8"
     inkscape:window-y="-8"
     inkscape:window-maximized="1"
     inkscape:current-layer="svg2" /><path
     fill="#000000"
     d="M46.36,13.4c0-4.33-3.53-7.86-7.86-7.86s-7.86,3.53-7.86,7.86c0,3.2,1.93,5.96,4.68,7.18v4.02l-8.84,8.84  l-8.78-8.78v-4.08c2.74-1.23,4.66-3.98,4.66-7.17c0-4.33-3.53-7.86-7.86-7.86S6.64,9.07,6.64,13.4c0,3.2,1.93,5.96,4.68,7.18v6.62  h0.1l-0.1,0.1l12,12v5.92c-2.76,1.22-4.68,3.98-4.68,7.18c0,4.33,3.53,7.86,7.86,7.86c4.33,0,7.86-3.53,7.86-7.86  c0-3.19-1.92-5.95-4.66-7.17v-5.99L41.64,27.3l-0.1-0.1h0.16v-6.63C44.44,19.34,46.36,16.59,46.36,13.4z M14.5,9.44  c2.18,0,3.96,1.78,3.96,3.96s-1.78,3.96-3.96,3.96s-3.96-1.78-3.96-3.96S12.32,9.44,14.5,9.44z M26.5,56.36  c-2.18,0-3.96-1.78-3.96-3.96s1.78-3.96,3.96-3.96c2.18,0,3.96,1.78,3.96,3.96S28.68,56.36,26.5,56.36z M38.5,17.36  c-2.18,0-3.96-1.78-3.96-3.96s1.78-3.96,3.96-3.96s3.96,1.78,3.96,3.96S40.68,17.36,38.5,17.36z"
     id="path4"
     style="fill:#c83737"
     inkscape:export-filename="C:\ARPA-2017\fatti_miei\AndreaMGOS-lavori\Progetto_ENEL-RETURN\icon_C83737.png"
     inkscape:export-xdpi="90"
     inkscape:export-ydpi="90" /><text
     x="0"
     y="79.5"
     fill="#000000"
     font-size="5px"
     font-weight="bold"
     font-family="'Helvetica Neue', Helvetica, Arial-Unicode, Arial, Sans-serif"
     id="text6">Created by Nick Bluth</text>
<text
     x="0"
     y="84.5"
     fill="#000000"
     font-size="5px"
     font-weight="bold"
     font-family="'Helvetica Neue', Helvetica, Arial-Unicode, Arial, Sans-serif"
     id="text8">from the Noun Project</text>
</svg>