<?xml version="1.0" encoding="UTF-8" standalone="no"?>
<svg
   xmlns:dc="http://purl.org/dc/elements/1.1/"
   xmlns:cc="http://creativecommons.org/ns#"
   xmlns:rdf="http://www.w3.org/1999/02/22-rdf-syntax-ns#"
   xmlns:svg="http://www.w3.org/2000/svg"
   xmlns="http://www.w3.org/2000/svg"
   xmlns:sodipodi="http://sodipodi.sourceforge.net/DTD/sodipodi-0.dtd"
   xmlns:inkscape="http://www.inkscape.org/namespaces/inkscape"
   xml:space="preserve"
   version="1.1"
   style="shape-rendering:geometricPrecision;text-rendering:geometricPrecision;image-rendering:optimizeQuality;"
   viewBox="0 0 798 513.75"
   x="0px"
   y="0px"
   fill-rule="evenodd"
   clip-rule="evenodd"
   id="svg2"
   inkscape:version="0.48.4 r9939"
   width="100%"
   height="100%"
   sodipodi:docname="noun_1079942_cc.svg"><metadata
     id="metadata22"><rdf:RDF><cc:Work
         rdf:about=""><dc:format>image/svg+xml</dc:format><dc:type
           rdf:resource="http://purl.org/dc/dcmitype/StillImage" /><dc:title></dc:title></cc:Work></rdf:RDF></metadata><sodipodi:namedview
     pagecolor="#ffffff"
     bordercolor="#666666"
     borderopacity="1"
     objecttolerance="10"
     gridtolerance="10"
     guidetolerance="10"
     inkscape:pageopacity="0"
     inkscape:pageshadow="2"
     inkscape:window-width="1440"
     inkscape:window-height="833"
     id="namedview20"
     showgrid="false"
     inkscape:zoom="0.57064758"
     inkscape:cx="37.987841"
     inkscape:cy="285.74379"
     inkscape:window-x="-8"
     inkscape:window-y="-8"
     inkscape:window-maximized="1"
     inkscape:current-layer="svg2" /><defs
     id="defs4"><style
       type="text/css"
       id="style6">
   
    .fil0 {fill:black}
   
  </style></defs><g
     id="g8"
     transform="matrix(0.53860093,-0.40215746,0.40215746,0.53860093,118.48636,305.90392)"
     style="fill:#c83737;fill-opacity:1"
     inkscape:export-filename="C:\Users\riccardo\Downloads\razor_blade.png"
     inkscape:export-xdpi="15.106033"
     inkscape:export-ydpi="15.106033"><path
       class="fil0"
       d="m 49,396 0,-48 C 65,335 59,327 46,316 L 12,316 0,302 C 0,239 0,176 0,112 L 12,99 46,99 C 59,88 65,80 49,66 l 0,-51 701,0 0,51 c -17,14 -11,22 2,33 l 34,0 12,13 c 0,64 0,127 0,190 l -12,14 -34,0 c -13,11 -19,19 -2,32 l 0,48 -701,0 z m 42,-198 17,0 c 3,-20 14,-35 28,-35 14,0 25,15 28,35 l 17,0 c 1,-20 7,-35 14,-35 7,0 12,15 14,35 l 74,0 c 5,-60 55,-107 116,-107 61,0 111,47 116,107 l 75,0 c 1,-20 7,-35 14,-35 7,0 12,15 14,35 l 16,0 c 3,-20 14,-35 28,-35 14,0 26,15 28,35 l 17,0 c 2,-20 7,-35 14,-35 8,0 15,20 15,44 0,24 -7,44 -15,44 -7,0 -12,-15 -14,-34 l -17,0 c -2,19 -14,34 -28,34 -14,0 -25,-15 -28,-34 l -16,0 c -2,19 -7,34 -14,34 -7,0 -13,-15 -14,-34 l -75,0 c -5,59 -55,106 -116,106 -61,0 -111,-47 -116,-106 l -74,0 c -2,19 -7,34 -14,34 -7,0 -13,-15 -14,-34 l -17,0 c -3,19 -14,34 -28,34 -14,0 -25,-15 -28,-34 l -17,0 c -1,19 -7,34 -14,34 -8,0 -14,-20 -14,-44 0,-24 6,-44 14,-44 7,0 13,15 14,35 z"
       id="path10"
       inkscape:connector-curvature="0"
       style="fill:#c83737;fill-opacity:1" /><polygon
       class="fil0"
       points="749,4 749,13 49,13 49,4 52,0 399,0 746,0 "
       id="polygon12"
       style="fill:#c83737;fill-opacity:1" /><polygon
       class="fil0"
       points="749,407 749,398 49,398 49,407 52,411 399,411 746,411 "
       id="polygon14"
       style="fill:#c83737;fill-opacity:1" /></g></svg>