<svg xmlns="http://www.w3.org/2000/svg" xmlns:xlink="http://www.w3.org/1999/xlink" version="1.1" x="0px" y="0px" viewBox="0 0 100 125" enable-background="new 0 0 100 100" xml:space="preserve"><path d="M22.151,78.539c-0.781-0.781-2.047-0.781-2.828,0L8.649,89.21c-0.781,0.781-0.781,2.047,0,2.829  c0.391,0.391,0.902,0.586,1.414,0.586s1.023-0.195,1.414-0.585l10.674-10.671C22.933,80.586,22.933,79.32,22.151,78.539z   M25.993,84.064l-5.148,5.146c-0.781,0.781-0.781,2.047-0.001,2.829c0.391,0.391,0.903,0.586,1.415,0.586s1.023-0.195,1.414-0.585  l5.148-5.146c0.781-0.781,0.781-2.047,0.001-2.829C28.041,83.283,26.774,83.284,25.993,84.064z M91.866,10.351l-0.063-0.974  c-0.064-1.002-0.862-1.802-1.865-1.868l-0.97-0.064c-0.174-0.012-1.118-0.07-2.63-0.07c-7.177,0-25.137,1.266-36.855,12.988  c-1.438,1.438-2.808,2.924-4.086,4.437c-1.592-0.77-3.436-1.183-5.354-1.183c-3.456,0-6.719,1.281-8.95,3.515L18.9,39.326  c-1.38,1.375-0.962,3.036-0.737,3.928c0.04,0.161,0.083,0.326,0.115,0.493c0.19,1.013,0.676,1.933,1.404,2.662  c0.438,0.438,0.956,0.792,1.557,1.062l10.859,4.762l-10.711,10.71c-0.354,0.354-0.563,0.828-0.584,1.328  c-0.009,0.195-0.152,4.828,4.48,9.462c4.272,4.272,8.545,4.482,9.339,4.482c0.067,0,0.11-0.002,0.125-0.002  c0.5-0.022,0.974-0.23,1.327-0.584l10.898-10.899l5.051,11.515c0.249,0.583,0.606,1.11,1.065,1.573  c0.731,0.731,1.653,1.217,2.661,1.402c0.31,0.058,0.626,0.087,0.94,0.087c1.356,0,2.633-0.527,3.599-1.489l12.32-12.323  c3.657-3.656,4.38-9.233,1.986-13.651c1.502-1.278,2.96-2.623,4.35-4.015C93.386,35.397,91.935,11.36,91.866,10.351z M30.981,44.268  c-0.512,0-1.023-0.195-1.414-0.585c-0.781-0.781-0.781-2.047,0-2.829l9.146-9.148c0.781-0.781,2.047-0.781,2.828,0  c0.781,0.781,0.781,2.047,0,2.829l-9.146,9.148C32.005,44.073,31.493,44.268,30.981,44.268z M67.458,60.451l-9.148,9.148  c-0.391,0.391-0.902,0.586-1.414,0.586s-1.023-0.195-1.414-0.586c-0.781-0.781-0.781-2.047,0-2.828l9.148-9.148  c0.781-0.781,2.047-0.781,2.828,0C68.239,58.403,68.239,59.67,67.458,60.451z M75.603,29.146c-0.858,0.858-2.002,1.331-3.218,1.331  c-1.217,0-2.359-0.473-3.218-1.332c-1.774-1.773-1.775-4.661-0.005-6.435c0.86-0.858,2.004-1.332,3.222-1.332  s2.36,0.473,3.218,1.329C77.375,24.483,77.376,27.372,75.603,29.146z M13.114,77.379c0.512,0,1.023-0.195,1.414-0.586l4.574-4.574  c0.781-0.781,0.781-2.047,0-2.828s-2.047-0.781-2.828,0L11.7,73.965c-0.781,0.781-0.781,2.047,0,2.828  C12.091,77.184,12.603,77.379,13.114,77.379z"/><text x="0" y="115" fill="#000000" font-size="5px" font-weight="bold" font-family="'Helvetica Neue', Helvetica, Arial-Unicode, Arial, Sans-serif">Created by Pundimon</text><text x="0" y="120" fill="#000000" font-size="5px" font-weight="bold" font-family="'Helvetica Neue', Helvetica, Arial-Unicode, Arial, Sans-serif">from the Noun Project</text></svg>